<svg height="512" viewBox="0 0 64 64" width="512" xmlns="http://www.w3.org/2000/svg"><g id="flatcolor"><path d="m37.92 54.05a5.8914 5.8914 0 0 1 .08.95 6 6 0 0 1 -12 0 5.8914 5.8914 0 0 1 .08-.95v-.05h11.84z" fill="#ffa912"/><path d="m37.92 54.05v-.05h-3v.05a5.8914 5.8914 0 0 1 .08.95 6.0026 6.0026 0 0 1 -4.5 5.8027 5.9769 5.9769 0 0 0 7.5-5.8027 5.8914 5.8914 0 0 0 -.08-.95z" opacity=".2"/><path d="m32 3a6.0048 6.0048 0 0 1 6 6 5.8914 5.8914 0 0 1 -.08.95l-.04.09-5.88-1.04a17.0691 17.0691 0 0 0 -5.88 1.04l-.04-.09a5.8914 5.8914 0 0 1 -.08-.95 6.0048 6.0048 0 0 1 6-6z" fill="#ffa912"/><g opacity=".2"><path d="m32 3a5.9766 5.9766 0 0 0 -1.5.1973 6.0026 6.0026 0 0 1 4.5 5.8027c0 .1816-.0275.35-.044.5228l2.924.5172.04-.09a5.8914 5.8914 0 0 0 .08-.95 6.0048 6.0048 0 0 0 -6-6z"/><path d="m29 9a17.1356 17.1356 0 0 0 -2.978.2618 6.3032 6.3032 0 0 0 .058.6882l.04.09a17.06 17.06 0 0 1 3.7314-.8894z"/></g><path d="m57 50.33v3.67h-19.08-11.84-19.08v-3.67l7.76-7.33h.24 34 .24z" fill="#de4132"/><path d="m49.24 43h-4.8826l2.9746 2.81a8.5151 8.5151 0 0 1 2.668 6.19h-43v2h50v-3.67z" opacity=".2"/><path d="m49 26v17h-34v-17a16.9694 16.9694 0 0 1 17-17l5.88 1.04a17.0386 17.0386 0 0 1 11.12 15.96z" fill="#ffa912"/><path d="m44.02 13.98a17.12 17.12 0 0 0 -3.9112-2.9023 16.9193 16.9193 0 0 1 4.8912 11.9223 17 17 0 0 1 -17 17h-13v3h34v-17a16.9271 16.9271 0 0 0 -4.98-12.02z" opacity=".2"/></g></svg>