<svg id="Capa_1" enable-background="new 0 0 512 512" height="512" viewBox="0 0 512 512" width="512" xmlns="http://www.w3.org/2000/svg"><g><path d="m182.672 305.553h-100.903v-122.643h100.903c2.069 0 3.746 1.677 3.746 3.746v115.152c0 2.068-1.677 3.745-3.746 3.745z" fill="#dd636e"/><path d="m182.672 182.91h-36.254v57.164c0 25.118-20.362 45.48-45.48 45.48h-19.17v20h100.903c2.069 0 3.746-1.677 3.746-3.746v-115.152c.001-2.069-1.676-3.746-3.745-3.746z" fill="#da4a54"/><path d="m216.955 187.318h-30.536v113.826h30.537c57.83 0 111.893 28.689 144.31 76.579 10.306-88.697 10.306-178.288 0-266.984-32.418 47.89-86.481 76.579-144.311 76.579z" fill="#f1f1f4"/><path d="m361.265 110.739c-10.116 14.945-22.341 28.02-36.13 38.937.606 19.361.783 39.842.684 60.102-.26 53.554-51.39 91.57-103.062 77.491-11.771-3.207-23.944-5.195-36.339-5.868v19.743h30.537c57.83 0 111.893 28.689 144.31 76.579 10.305-88.696 10.305-178.287 0-266.984z" fill="#dfdde2"/><path d="m360.136 101.356c11.875 95.397 11.747 191.381 0 285.75-1.012 8.129 4.689 15.56 12.804 16.676 8.264 1.136 15.872-4.702 16.903-12.979 12.116-97.338 12.116-195.803 0-293.142-1.03-8.278-8.639-14.115-16.902-12.979-8.116 1.115-13.817 8.546-12.805 16.674z" fill="#8b818e"/><path d="m58.508 305.553h23.261v-122.643h-23.261c-7.13 0-12.91 5.78-12.91 12.91v96.824c0 7.129 5.78 12.909 12.91 12.909z" fill="#8b818e"/><path d="m45.599 272.644v20c0 7.13 5.78 12.91 12.91 12.91h23.261v-20h-23.262c-7.13-.001-12.909-5.781-12.909-12.91z" fill="#756e78"/><path d="m45.598 287.8-34.952-5.797c-1.816-.301-3.147-1.871-3.147-3.712v-69.183c0-1.84 1.331-3.411 3.147-3.712l34.952-5.797z" fill="#dd636e"/><path d="m153.44 305.554h-71.671c0 24.144 4.926 47.138 13.828 68.031l57.433-40.215c2.205-1.544 3.376-4.182 3.04-6.853z" fill="#8b818e"/><path d="m150.372 335.23-54.775 38.354c8.288 19.454 20.022 37.087 34.436 52.131 1.575 1.644 3.991 2.172 6.13 1.393l50.11-18.238c7.252-2.64 8.636-12.184 2.54-16.917-18.363-14.257-32.064-34.215-38.441-56.723z" fill="#f1f1f4"/><g fill="#ffe07d"><path d="m491.037 257.695h-37.509c-7.436 0-13.463-6.028-13.463-13.463 0-7.436 6.028-13.463 13.463-13.463h37.509c7.436 0 13.463 6.028 13.463 13.463 0 7.435-6.028 13.463-13.463 13.463z"/><path d="m464.022 343.475-32.484-18.755c-6.439-3.718-8.646-11.952-4.928-18.391 3.718-6.439 11.952-8.646 18.391-4.928l32.484 18.755c6.439 3.718 8.646 11.952 4.928 18.391-3.718 6.44-11.952 8.646-18.391 4.928z"/><path d="m464.022 144.988-32.484 18.755c-6.439 3.718-8.646 11.952-4.928 18.391 3.718 6.439 11.952 8.646 18.391 4.928l32.484-18.755c6.439-3.718 8.646-11.952 4.928-18.391-3.718-6.44-11.952-8.646-18.391-4.928z"/></g><path d="m9.42 289.402 28.735 4.765c.782 10.545 9.612 18.886 20.353 18.886h15.913c.887 21.971 5.677 43.288 14.276 63.471 8.597 20.18 20.683 38.476 35.92 54.38 3.618 3.777 9.156 5.056 14.111 3.253l50.11-18.238c5.973-2.174 10.125-7.212 11.107-13.478.978-6.235-1.525-12.523-6.533-16.411-2.927-2.272-5.767-4.736-8.441-7.322-2.978-2.88-7.726-2.799-10.605.179s-2.799 7.726.179 10.605c3.062 2.96 6.315 5.782 9.668 8.386.98.761.993 1.729.913 2.239-.09.575-.41 1.338-1.418 1.706l-49.065 17.858c-12.206-12.917-22.167-27.525-29.671-43.506l41.471-29.039c1.628 4.234 3.511 8.387 5.634 12.42 1.923 3.653 6.453 5.078 10.13 3.143 3.666-1.93 5.072-6.465 3.143-10.13-2.465-4.682-4.557-9.546-6.246-14.514 3.33-3.199 4.994-7.797 4.406-12.473l-1.572-12.529h20.733c3.631 0 6.865-1.73 8.922-4.409h25.36c54.49 0 105.319 26.492 136.531 71.009-.258 2.176-.523 4.351-.793 6.526-1.511 12.138 7.114 23.368 19.226 25.033 5.986.823 11.942-.744 16.761-4.447 4.802-3.69 7.858-9.03 8.605-15.036 2.304-18.51 4.198-37.326 5.628-55.924.317-4.13-2.773-7.735-6.903-8.053-4.131-.322-7.736 2.773-8.053 6.903-1.413 18.364-3.282 36.943-5.557 55.222-.249 1.994-1.264 3.768-2.86 4.995-1.601 1.229-3.583 1.755-5.579 1.481-4.022-.553-6.885-4.285-6.383-8.32 11.783-94.653 11.972-191.433 0-287.603-.502-4.034 2.362-7.766 6.383-8.318 1.996-.274 3.978.251 5.578 1.48 1.597 1.227 2.613 3.001 2.861 4.996 8.32 66.843 10.902 134.851 7.676 202.133-.199 4.138 2.995 7.652 7.132 7.851 4.159.197 7.653-2.995 7.851-7.132 3.268-68.139.653-137.011-7.773-204.705-.748-6.007-3.805-11.347-8.607-15.037-4.805-3.692-10.759-5.271-16.76-4.446-12.111 1.666-20.736 12.895-19.225 25.031.271 2.175.535 4.351.793 6.527-31.213 44.517-82.041 71.009-136.532 71.009h-25.36c-2.058-2.679-5.291-4.409-8.922-4.409h-23.708c-4.142 0-7.5 3.358-7.5 7.5s3.358 7.5 7.5 7.5h19.954v107.644h-25.375c-.058-.001-.117-.001-.175 0h-64.097v-107.644h34.695c4.142 0 7.5-3.358 7.5-7.5s-3.358-7.5-7.5-7.5h-65.457c-10.371 0-18.961 7.776-20.244 17.804l-28.843 4.783c-5.459.904-9.421 5.577-9.421 11.111v69.184c0 5.532 3.961 10.204 9.42 11.11zm139.191 37.906-2.417 1.692c-.086.058-.172.117-.255.179l-46.85 32.805c-5.679-15.712-8.915-32.109-9.655-48.93h57.388zm207.223-196.982c7.537 75.708 7.537 152.101 0 227.811-34.329-40.693-84.959-64.492-138.878-64.492h-23.037v-98.826h23.037c53.919-.001 104.549-23.8 138.878-64.493zm-297.326 60.084h15.762v107.644h-15.762c-2.983 0-5.41-2.427-5.41-5.41v-4.736c.001-.078.001-.156 0-.234 0-51.661 0 38.983 0-91.854.001-2.984 2.427-5.41 5.41-5.41zm-43.508 21.867 23.099-3.831v15.247l-4.447.26c-4.135.241-7.292 3.789-7.05 7.924.243 4.167 3.825 7.293 7.924 7.05l3.573-.208v11.025l-3.573-.208c-4.131-.24-7.683 2.915-7.924 7.05s2.915 7.683 7.05 7.924l4.447.26v14.183l-23.099-3.83z"/><path d="m218.325 226.725h48.55c4.142 0 7.5-3.358 7.5-7.5s-3.358-7.5-7.5-7.5h-48.55c-4.142 0-7.5 3.358-7.5 7.5s3.358 7.5 7.5 7.5z"/><path d="m491.037 223.268h-37.509c-11.559 0-20.963 9.404-20.963 20.963s9.404 20.963 20.963 20.963h37.509c11.559 0 20.963-9.404 20.963-20.963s-9.404-20.963-20.963-20.963zm0 26.927h-37.509c-3.288 0-5.963-2.675-5.963-5.963s2.675-5.963 5.963-5.963h37.509c3.288 0 5.963 2.675 5.963 5.963s-2.675 5.963-5.963 5.963z"/><path d="m418.021 318.487c1.449 5.409 4.918 9.929 9.767 12.729l32.484 18.754c10.074 5.816 22.894 2.272 28.636-7.673 5.793-10.033 2.362-22.842-7.673-28.636l-32.484-18.755c-4.85-2.8-10.499-3.543-15.908-2.094-5.408 1.45-9.929 4.918-12.729 9.768s-3.543 10.498-2.093 15.907zm15.084-8.408c1.645-2.847 5.3-3.824 8.146-2.183l32.484 18.755c2.848 1.644 3.827 5.298 2.183 8.146-1.645 2.847-5.298 3.826-8.146 2.183l-32.484-18.754c-2.855-1.648-3.831-5.293-2.183-8.147z"/><path d="m448.751 193.557 32.484-18.755c4.849-2.8 8.318-7.32 9.767-12.729s.706-11.058-2.094-15.907c-5.78-10.01-18.625-13.452-28.636-7.673l-32.484 18.755c-4.849 2.8-8.318 7.32-9.767 12.729s-.706 11.058 2.094 15.907c5.764 9.983 18.602 13.466 28.636 7.673zm-13.463-23.319 32.484-18.755c2.847-1.644 6.502-.666 8.146 2.183 1.644 2.848.665 6.502-2.183 8.146l-32.484 18.755c-2.847 1.642-6.502.665-8.146-2.183-1.648-2.854-.672-6.498 2.183-8.146z"/></g></svg>