<?xml version="1.0"?>
<svg xmlns="http://www.w3.org/2000/svg" xmlns:xlink="http://www.w3.org/1999/xlink" xmlns:svgjs="http://svgjs.com/svgjs" version="1.1" width="512" height="512" x="0" y="0" viewBox="0 0 511.503 511.503" style="enable-background:new 0 0 512 512" xml:space="preserve" class=""><g><g xmlns="http://www.w3.org/2000/svg"><path d="m437.02 74.483c-95.297-99.308-266.746-99.314-362.038.003-79.83 77.529-97.997 206.704-43.776 303.582l-30.694 114.552c-1.387 5.176.093 10.7 3.882 14.489 3.792 3.805 9.371 5.265 14.489 3.882l114.552-30.694c96.889 54.216 226.044 36.058 303.585-43.777 99.308-95.282 99.313-266.755 0-362.037zm-181.02 407.019c-39.747 0-78.832-10.463-113.03-30.258-3.453-2-7.566-2.536-11.397-1.507l-95.36 25.551 25.551-95.359c1.031-3.848.489-7.948-1.506-11.396-87.291-148.007 23.687-340.528 195.745-339.029 299.803 12.404 299.742 439.625-.003 451.998z" fill="#ffffff" data-original="#000000" style="" class=""/><path d="m382.277 182.418 8.132-8.132c17.409-16.693 17.41-46.947-.001-63.64-16.691-17.408-46.948-17.41-63.64 0l-8.853 8.853c-4.507-.636-9.247.762-12.713 4.229l-164.392 164.393c-.326.325-.631.67-.926 1.024-1.119 1.34-2.007 2.885-2.596 4.528l-28.461 79.373c-1.959 5.463-.591 11.566 3.513 15.669 4.113 4.124 10.265 5.463 15.669 3.513 0 0 79.372-28.461 79.373-28.461 2.075-.744 3.994-1.962 5.552-3.522 0 0 152.373-152.372 152.373-152.372 11.588 11.111 11.587 31.315-.003 42.423 0 0-61.517 61.517-61.517 61.517-17.279 17.151-16.018 45.489 2.121 61.521 5.857 5.858 15.355 5.858 21.213 0s5.858-15.355 0-21.213l-2.12-2.121c-4.68-4.68-4.68-12.295 0-16.975l61.517-61.517c23.229-22.275 23.229-62.578 0-84.853zm-23.688-54.916c4.03 0 7.797 1.547 10.607 4.357 5.771 5.526 5.771 15.687 0 21.213l-6.718 6.718-21.213-21.213 6.718-6.718c2.809-2.81 6.576-4.357 10.606-4.357zm-210.8 225.764 9.749-27.186 17.438 17.438zm54.529-24.831-29.698-29.698 143.189-143.189 29.698 29.699z" fill="#ffffff" data-original="#000000" style="" class=""/></g></g></svg>
