<svg id="Layer_1" enable-background="new 0 0 512 512" height="512" viewBox="0 0 512 512" width="512" xmlns="http://www.w3.org/2000/svg"><g><path d="m360.317 94.173h-90.78c-19.564 0-35.481 15.917-35.481 35.481v40.962c0 19.564 15.917 35.481 35.475 35.481l70.439.026 33.338 19.212c2.317 1.335 4.903 2.003 7.489 2.003 2.592 0 5.184-.671 7.505-2.013 4.639-2.68 7.495-7.63 7.495-12.987v-82.685c.001-19.564-15.915-35.48-35.48-35.48z" fill="#414952"/><path d="m360.317 94.173h-45.39v111.941l25.044.009 33.338 19.212c2.317 1.335 4.903 2.003 7.489 2.003 2.592 0 5.184-.671 7.505-2.013 4.639-2.68 7.495-7.63 7.495-12.987v-82.685c0-19.564-15.916-35.48-35.481-35.48z" fill="#23272b"/><path d="m306.11 4.798h-125.098c-23.833 0-43.223 19.39-43.223 43.224v113.942c0 5.357 2.857 10.307 7.495 12.987 2.322 1.342 4.914 2.013 7.505 2.013 2.585 0 5.172-.668 7.49-2.004l47.253-27.231 98.579-.037c23.833 0 43.223-19.39 43.223-43.224v-56.446c-.001-23.834-19.391-43.224-43.224-43.224z" fill="#ffe733"/><g><path d="m499.086 507.202h-237.116c-7.132 0-12.914-5.782-12.914-12.914 0-72.494 58.978-131.472 131.472-131.472s131.472 58.979 131.472 131.473c0 7.131-5.782 12.913-12.914 12.913z" fill="#6e4eed"/></g><path d="m499.086 507.202c7.132 0 12.914-5.782 12.914-12.914 0-72.494-58.978-131.472-131.471-131.472v144.385h118.557z" fill="#3636d9"/><g><path d="m380.529 388.644c-39.807 0-72.193-32.385-72.193-72.193 0-39.807 32.385-72.193 72.193-72.193 39.807 0 72.192 32.386 72.192 72.193s-32.386 72.193-72.192 72.193z" fill="#fcf2b6"/></g><path d="m452.721 316.451c0-39.807-32.385-72.193-72.192-72.193v144.385c39.806.001 72.192-32.385 72.192-72.192z" fill="#ffd2bf"/><path d="m152.714 339.488c-84.203 0-152.707 68.5-152.714 152.702-.001 8.287 6.713 15.012 15 15.012h289.708c8.72-90.917-62.837-167.714-151.994-167.714z" fill="#ff636e"/><path d="m152.714 339.488c-.69 0-1.376.017-2.064.026v167.688h154.058c8.72-90.917-62.837-167.714-151.994-167.714z" fill="#eb2893"/><g><path d="m152.714 369.488c-46.239 0-83.857-37.618-83.857-83.857s37.618-83.857 83.857-83.857 83.857 37.618 83.857 83.857-37.618 83.857-83.857 83.857z" fill="#fcf2b6"/></g><path d="m152.714 201.773c-.692 0-1.376.036-2.064.052v167.61c.688.017 1.372.052 2.064.052 46.239 0 83.857-37.618 83.857-83.857 0-46.238-37.618-83.857-83.857-83.857z" fill="#ffd2bf"/><path d="m306.11 4.798h-62.549v142.917l62.549-.023c23.833 0 43.223-19.39 43.223-43.224v-56.446c0-23.834-19.39-43.224-43.223-43.224z" fill="#ffc654"/></g></svg>