<svg id="Capa_1" enable-background="new 0 0 512 512" height="512" viewBox="0 0 512 512" width="512" xmlns="http://www.w3.org/2000/svg"><g><path d="m15.888 11.779v488.442c0 6.503 5.272 11.776 11.776 11.776h456.673c6.503 0 11.776-5.272 11.776-11.776v-413.345c0-2.165-.597-4.289-1.725-6.137l-45.857-75.097c-2.139-3.502-5.946-5.639-10.05-5.639h-410.818c-6.503 0-11.775 5.273-11.775 11.776z" fill="#82aee3"/><path d="m496.112 86.874v413.349c0 6.506-5.271 11.777-11.777 11.777h-20.589c6.506 0 11.777-5.271 11.777-11.777v-413.349c0-2.162-.597-4.282-1.729-6.135l-45.852-75.098c-2.141-3.5-5.95-5.641-10.047-5.641h20.589c4.097 0 7.906 2.141 10.047 5.641l45.851 75.097c1.132 1.854 1.73 3.974 1.73 6.136z" fill="#528fd8"/><path d="m381.502 128.761h-253.83c-11.545 0-20.904-9.359-20.904-20.904v-107.854h295.638v107.854c0 11.545-9.359 20.904-20.904 20.904z" fill="#d9e7ec"/><path d="m381.502 128.761h-104.598c-11.545 0-20.904-9.359-20.904-20.904v-107.854h146.406v107.854c0 11.545-9.359 20.904-20.904 20.904z" fill="#596c76"/><path d="m402.402 0v107.854c0 11.55-9.358 20.908-20.898 20.908h-20.671c11.54 0 20.908-9.357 20.908-20.908v-107.854z" fill="#465a61"/><path d="m439.388 511.997h-369.791v-215.858c0-8.984 7.283-16.268 16.268-16.268h337.256c8.984 0 16.268 7.283 16.268 16.268v215.858z" fill="#d9e7ec"/><path d="m439.39 296.138v215.862h-20.589v-215.862c0-8.987-7.288-16.265-16.265-16.265h20.589c8.976 0 16.265 7.278 16.265 16.265z" fill="#c5d3dd"/><g><g><path d="m392.964 336.42h-276.943c-4.265 0-7.721-3.456-7.721-7.721s3.456-7.721 7.721-7.721h276.943c4.265 0 7.721 3.456 7.721 7.721 0 4.264-3.456 7.721-7.721 7.721z" fill="#b6c4cf"/></g><g><path d="m392.964 381.243h-276.943c-4.265 0-7.721-3.456-7.721-7.721s3.456-7.721 7.721-7.721h276.943c4.265 0 7.721 3.456 7.721 7.721s-3.456 7.721-7.721 7.721z" fill="#b6c4cf"/></g><g><path d="m392.964 426.066h-276.943c-4.265 0-7.721-3.456-7.721-7.721 0-4.264 3.456-7.721 7.721-7.721h276.943c4.265 0 7.721 3.456 7.721 7.721s-3.456 7.721-7.721 7.721z" fill="#b6c4cf"/></g><g><path d="m392.964 470.89h-276.943c-4.265 0-7.721-3.456-7.721-7.721s3.456-7.721 7.721-7.721h276.943c4.265 0 7.721 3.456 7.721 7.721s-3.456 7.721-7.721 7.721z" fill="#b6c4cf"/></g></g><path d="m344.094 97.034h-29.783c-3.191 0-5.778-2.587-5.778-5.778v-53.747c0-3.191 2.587-5.778 5.778-5.778h29.783c3.191 0 5.778 2.587 5.778 5.778v53.748c.001 3.19-2.586 5.777-5.778 5.777z" fill="#c5d3dd"/><path d="m349.87 37.513v53.747c0 3.191-2.584 5.775-5.775 5.775h-20.671c3.191 0 5.775-2.584 5.775-5.775v-53.747c0-3.191-2.584-5.785-5.775-5.785h20.671c3.191-.001 5.775 2.593 5.775 5.785z" fill="#b6c4cf"/></g></svg>