<svg id="Layer_1" enable-background="new 0 0 496.001 496.001" height="512" viewBox="0 0 496.001 496.001" width="512" xmlns="http://www.w3.org/2000/svg"><path d="m480.001 311.844v88c0 8.837-7.163 16-16 16h-432c-8.837 0-16-7.163-16-16 0-92.616-.005-86.97.01-88 1.13-125.12 103.77-230.15 229.1-231.67 129.36-1.57 234.72 102.72 234.89 231.67z" fill="#d1e7ff"/><path d="m400.561 137.374c-140.401-58.476-291.283 32.988-317.27 174.47-4.432 24.064-3.934 37.098-3.811 87.955.022 8.851-7.149 16.045-16 16.045h-31.479c-8.837 0-16-7.163-16-16 0-92.616-.005-86.97.01-88 1.13-125.12 103.77-230.15 229.1-231.67 59.54-.72 114 20.98 155.45 57.2z" fill="#e8f3ff"/><path d="m16.011 311.844c1.13-125.12 103.77-230.15 229.1-231.67 129.36-1.57 234.72 102.72 234.89 231.67-4.721 0-454.46 0-463.99 0z" fill="#b9dcff"/><path d="m199.001 347.844v68h-94v-68c0-14.45 6.52-27.38 16.78-36h.01c30.398-25.561 77.21-4.012 77.21 36z" fill="#b9dcff"/><path d="m134.519 322.75c-4.615 7.296-7.268 15.922-7.268 25.095v68h-22.25v-68c0-14.45 6.52-27.38 16.78-36h.01c7.929-6.668 17.811 2.869 12.728 10.905z" fill="#a2d0ff"/><path d="m253.162 127.307c-84.37 22.816-153.107 93.27-169.871 184.538h-67.28c1.135-125.635 104.627-231.107 230.885-231.686 28.119-.129 33.41 39.807 6.266 47.148z" fill="#d1e7ff"/><path d="m181.11 163.965c4.437 7.642 1.838 17.434-5.804 21.871-17.18 9.974-32.62 23.724-44.65 39.763-3.143 4.191-7.948 6.401-12.812 6.401-13.023 0-20.747-14.99-12.788-25.601 14.793-19.723 33.022-35.953 54.183-48.237 7.645-4.437 17.435-1.838 21.871 5.803zm314.891 251.879c0 8.836-7.163 16-16 16-9.992 0-458.172 0-464 0-8.836 0-16-7.164-16-16 0-112.467-.012-103.561.034-104.665 1.472-133.883 111.031-245.376 244.887-247.003 139.306-1.684 251.08 110.785 251.08 247.668-.001 12.421-.001 90.838-.001 104zm-313-16v-52c0-17.093-13.907-31-31-31s-31 13.907-31 31v52h15v-25c0-8.836 7.164-16 16-16s16 7.164 16 16v25zm281 0v-72h-200c-8.837 0-16-7.164-16-16s7.163-16 16-16h199.398c-8.308-112.222-102.64-201.117-218.089-199.67-111.583 1.356-203.417 89.346-212.549 199.67h29.24c8.836 0 16 7.164 16 16s-7.164 16-16 16h-30v72h57v-52c0-34.738 28.262-63 63-63s63 28.262 63 63v52z" fill="#2e58ff"/></svg>