<svg height="512pt" viewBox="0 0 512 512" width="512pt" xmlns="http://www.w3.org/2000/svg"><path d="m151 61v390h180v-390zm0 0" fill="#523e6d"/><path d="m391 211v-75l-159.902344 120 159.902344 120v-75h121v-90zm0 0" fill="#78b9eb"/><path d="m151 256h180v195h-180zm0 0" fill="#3e254c"/><path d="m512 256v45h-121v75l-159.902344-120zm0 0" fill="#43a2dd"/><path d="m0 65.800781v380.398438l181 65.800781v-512zm0 0" fill="#ff6c6c"/><path d="m0 256h181v256l-181-65.800781zm0 0" fill="#f93d3d"/><path d="m91 226h30v60h-30zm0 0" fill="#babae0"/><path d="m91 256h30v30h-30zm0 0" fill="#c3c3e5"/></svg>