<?xml version="1.0" encoding="iso-8859-1"?>
<!-- Generator: Adobe Illustrator 19.0.0, SVG Export Plug-In . SVG Version: 6.00 Build 0)  -->
<svg version="1.1" id="Layer_1" xmlns="http://www.w3.org/2000/svg" xmlns:xlink="http://www.w3.org/1999/xlink" x="0px" y="0px"
	 viewBox="0 0 512 512" style="enable-background:new 0 0 512 512;" xml:space="preserve">
<path style="fill:#5B5D6E;" d="M508.097,211.862l-87.338-77.216c-2.905-2.595-7.181-2.957-10.483-0.931
	c-3.319,2.044-4.905,6.008-3.914,9.775l38.9,147.82h-48.021v35.31h61.793c9.75,0,17.655-7.905,17.655-17.655
	c0-8.125-5.517-14.897-12.989-16.952l-32.83-124.764l54.646,48.572V256h-8.828c-4.879,0-8.828,3.948-8.828,8.828
	c0,4.879,3.948,8.828,8.828,8.828h17.655c9.732,0,17.655-7.923,17.655-17.655v-44.138H508.097z"/>
<rect x="361.931" y="61.793" style="fill:#6D7083;" width="17.655" height="167.724"/>
<g>
	<path style="fill:#7F8499;" d="M379.586,273.655h-17.655c-4.875,0-8.828-3.953-8.828-8.828v-35.31c0-4.875,3.953-8.828,8.828-8.828
		h17.655c4.875,0,8.828,3.953,8.828,8.828v35.31C388.414,269.703,384.461,273.655,379.586,273.655z"/>
	<path style="fill:#7F8499;" d="M344.276,97.104c-4.879,0-8.828-3.948-8.828-8.828v-35.31c0-4.879,3.948-8.828,8.828-8.828
		c4.879,0,8.828,3.948,8.828,8.828v35.31C353.104,93.155,349.155,97.104,344.276,97.104z"/>
</g>
<path style="fill:#C7CFE2;" d="M220.69,220.69h-52.966c-4.875,0-8.828,3.953-8.828,8.828v35.31h70.621v-35.31
	C229.517,224.642,225.566,220.69,220.69,220.69z"/>
<g>
	<rect x="88.276" y="167.724" style="fill:#7F8499;" width="17.655" height="70.621"/>
	<path style="fill:#7F8499;" d="M25.259,225.479L0.981,272.632c-2.262,4.394-0.477,9.789,3.96,11.966l97.842,48.007l0.01-79.425
		l-65.866-31.618C32.619,219.492,27.446,221.229,25.259,225.479z"/>
</g>
<path style="fill:#6D7083;" d="M8.38,258.262l-7.399,14.37c-2.262,4.394-0.477,9.789,3.96,11.966l97.841,48.007l0.003-28.021
	L8.38,258.262z"/>
<path style="fill:#C7CFE2;" d="M397.241,256H135.945l-18.615-31.025c-1.596-2.659-4.469-4.286-7.57-4.286H97.104
	c-4.875,0-8.828,3.953-8.828,8.828v105.931c0,4.875,3.953,8.828,8.828,8.828h300.138c4.875,0,8.828-3.953,8.828-8.828v-70.621
	C406.069,259.953,402.118,256,397.241,256z"/>
<path style="fill:#D5DCED;" d="M141.242,256h256c4.875,0,8.828,3.953,8.828,8.828v35.31c0,4.875-3.953,8.828-8.828,8.828h-256
	c-4.875,0-8.828-3.953-8.828-8.828v-35.31C132.414,259.953,136.366,256,141.242,256z"/>
<path style="fill:#AFB9D2;" d="M308.966,335.448c-4.879,0-8.828-3.948-8.828-8.828v-35.31c0-4.879,3.948-8.828,8.828-8.828
	s8.828,3.948,8.828,8.828v35.31C317.793,331.5,313.845,335.448,308.966,335.448z"/>
<path style="fill:#5B5D6E;" d="M464.621,369.207L311.76,318.25c-1.811-0.604-3.776-0.604-5.587,0l-157.526,52.509H52.966
	c-9.732,0-17.655,7.923-17.655,17.655v61.793c0,4.879,3.948,8.828,8.828,8.828s8.828-3.948,8.828-8.828v-61.793h194.207v61.793
	c0,4.879,3.948,8.828,8.828,8.828c4.879,0,8.828-3.948,8.828-8.828v-61.793c0-9.732-7.923-17.655-17.655-17.655h-42.716
	l104.509-34.836l150.069,50.026v64.258c0,4.879,3.948,8.828,8.828,8.828s8.828-3.948,8.828-8.828v-64.258
	C476.69,378.336,471.837,371.604,464.621,369.207z"/>
<circle style="fill:#7F8499;" cx="308.966" cy="326.621" r="17.655"/>
<g>
	<path style="fill:#D5DCED;" d="M105.931,185.379H88.276c-4.875,0-8.828-3.953-8.828-8.828v-35.31c0-4.875,3.953-8.828,8.828-8.828
		h17.655c4.875,0,8.828,3.953,8.828,8.828v35.31C114.759,181.427,110.806,185.379,105.931,185.379z"/>
	<path style="fill:#D5DCED;" d="M397.241,70.621h-52.966c-4.875,0-8.828-3.953-8.828-8.828v-35.31c0-4.875,3.953-8.828,8.828-8.828
		h52.966c4.875,0,8.828,3.953,8.828,8.828v35.31C406.069,66.668,402.117,70.621,397.241,70.621z"/>
</g>
<g>
	<path style="fill:#7F8499;" d="M44.138,406.069C19.762,406.069,0,425.831,0,450.207c0,24.376,19.762,44.138,44.138,44.138
		s44.138-19.762,44.138-44.138C88.276,425.831,68.514,406.069,44.138,406.069z M44.138,476.69
		c-14.626,0-26.483-11.857-26.483-26.483c0-14.626,11.857-26.483,26.483-26.483s26.483,11.857,26.483,26.483
		C70.621,464.833,58.764,476.69,44.138,476.69z"/>
	<path style="fill:#7F8499;" d="M256,406.069c-24.376,0-44.138,19.762-44.138,44.138c0,24.376,19.762,44.138,44.138,44.138
		s44.138-19.762,44.138-44.138C300.138,425.831,280.376,406.069,256,406.069z M256,476.69c-14.626,0-26.483-11.857-26.483-26.483
		c0-14.626,11.857-26.483,26.483-26.483s26.483,11.857,26.483,26.483C282.483,464.833,270.626,476.69,256,476.69z"/>
	<path style="fill:#7F8499;" d="M467.862,406.069c-24.376,0-44.138,19.762-44.138,44.138c0,24.376,19.762,44.138,44.138,44.138
		S512,474.583,512,450.207C512,425.831,492.238,406.069,467.862,406.069z M467.862,476.69c-14.626,0-26.483-11.857-26.483-26.483
		c0-14.626,11.857-26.483,26.483-26.483s26.483,11.857,26.483,26.483C494.345,464.833,482.488,476.69,467.862,476.69z"/>
	<circle style="fill:#7F8499;" cx="361.931" cy="44.138" r="8.828"/>
</g>
<g>
	<circle style="fill:#6D7083;" cx="459.035" cy="308.966" r="17.655"/>
	<circle style="fill:#6D7083;" cx="414.897" cy="141.241" r="17.655"/>
	<circle style="fill:#6D7083;" cx="494.345" cy="211.862" r="17.655"/>
</g>
<g>
</g>
<g>
</g>
<g>
</g>
<g>
</g>
<g>
</g>
<g>
</g>
<g>
</g>
<g>
</g>
<g>
</g>
<g>
</g>
<g>
</g>
<g>
</g>
<g>
</g>
<g>
</g>
<g>
</g>
</svg>
