<svg enable-background="new 0 0 512 512" height="512" viewBox="0 0 512 512" width="512" xmlns="http://www.w3.org/2000/svg"><g id="_x30_1_flask"><g><g><path clip-rule="evenodd" d="m180.6 350.1c72.2-32.5 147.2-56.8 232.4-61.7l-149.9-234c-40.1 75.4-89.7 139.4-149.4 191.4z" fill="#fe636e" fill-rule="evenodd"/></g><g><path clip-rule="evenodd" d="m413 288.4c6.4 10.1 19.9 13 30 6.6s13-20 6.6-30l-149.9-234.1c-6.4-10.1-19.9-13-30-6.6s-13 20-6.6 30z" fill="#fec165" fill-rule="evenodd"/></g><g><path clip-rule="evenodd" d="m123.8 410.1 50.8-32.5c9.2-5.9 11.9-18.2 6-27.5l-66.8-104.4c-5.9-9.2-18.3-11.9-27.5-6l-50.8 32.5c-9.2 5.9-11.9 18.3-6 27.5l9 13.9 48.9 76.5 8.9 14c5.9 9.2 18.2 11.9 27.5 6z" fill="#fec165" fill-rule="evenodd"/></g><g><path clip-rule="evenodd" d="m64 405.1 23.4-15-48.9-76.5-23.4 15c-7.6 4.8-9.8 15-5 22.5l31.4 49c4.8 7.6 14.9 9.8 22.5 5z" fill="#eee1dc" fill-rule="evenodd"/></g><g><path clip-rule="evenodd" d="m188.8 501.5 40.7-26.1c3-1.9 3.9-6 1.9-8.9l-56.9-88.9-50.8 32.5-.8.5 56.9 88.9c2 3 6 3.9 9 2z" fill="#eee1dc" fill-rule="evenodd"/></g><g><path d="m306 26.9c-4.2-6.6-10.7-11.1-18.4-12.8-7.6-1.7-15.5-.3-22 3.9-6.5 4.2-11.1 10.7-12.7 18.4-1.3 6.1-.7 12.3 1.7 17.9-38.3 71.2-85.5 132-140.3 180.9-3.3-2.7-7.2-4.6-11.5-5.5-7.2-1.6-14.5-.3-20.6 3.7l-50.8 32.5c-6.1 3.9-10.4 10-12 17.2s-.3 14.5 3.7 20.6l4.9 7.6-17 11.1c-5.3 3.4-9 8.7-10.4 15-1.4 6.2-.2 12.6 3.2 17.9l31.4 49c4.5 7.1 12.2 11 20.1 11 4.4 0 8.8-1.2 12.8-3.8l17.1-10.9 4.9 7.7c5.2 8.1 14.1 12.6 23.1 12.6 2.3 0 4.6-.3 6.8-.9l53.6 83.7c2 3.1 5.1 5.3 8.8 6.1 1 .2 2 .3 3 .3 2.6 0 5.2-.8 7.5-2.2l40.7-26.1c3.1-2 5.3-5.1 6.1-8.8s.1-7.4-1.9-10.5l-53.4-83.5c6-6.8 8.2-16.2 6-25 78.9-34.8 148.9-53.2 219.2-57.8 5.6 6.3 13.7 9.8 21.8 9.8 5.4 0 10.8-1.5 15.7-4.6 13.6-8.7 17.5-26.8 8.8-40.4zm-42.4 42.2 136.2 212.7c-69.4 5.6-138.7 24.4-216.5 58.8l-59.9-93.5c54.6-48.4 101.7-108.3 140.2-178zm-203.7 329.7c-4.1 2.6-9.6 1.4-12.2-2.7l-31.4-49c-1.3-2-1.7-4.3-1.2-6.6s1.9-4.3 3.9-5.5l17.1-10.9 40.9 63.8zm42.7 1.3-8.8-13.8c0-.1-.1-.1-.1-.2l-48.9-76.5c-.1-.2-.2-.3-.3-.5l-8.6-13.5c-1.8-2.8-2.4-6.1-1.6-9.3.7-3.3 2.6-6 5.4-7.8l50.8-32.5c2-1.3 4.3-2 6.6-2 .9 0 1.8.1 2.7.3 3.3.7 6 2.6 7.8 5.4l66.8 104.4c3.7 5.7 2 13.4-3.7 17.1l-3 1.9-47.8 30.6c-5.9 3.8-13.6 2.1-17.3-3.6zm83 94.5-52.3-81.7 39-25 52.3 81.7zm253.4-205.9c-6.6 4.2-15.4 2.3-19.7-4.3l-149.9-234.1c-2-3.2-2.7-7-1.9-10.7s3-6.9 6.2-8.9 7-2.7 10.7-1.9 6.9 3 8.9 6.2l149.9 234.1c4.3 6.6 2.4 15.4-4.2 19.6z"/><path d="m203.2 290.7c1.4 2.2 3.9 3.5 6.3 3.5 1.4 0 2.8-.4 4-1.2 3.5-2.2 4.5-6.9 2.3-10.4l-28.8-45c-2.2-3.5-6.9-4.5-10.4-2.3s-4.5 6.9-2.3 10.4z"/><path d="m304.2 243.2c1.4 2.2 3.9 3.5 6.3 3.5 1.4 0 2.8-.4 4-1.2 3.5-2.2 4.5-6.9 2.3-10.4l-49.1-76.7c-2.2-3.5-6.9-4.5-10.4-2.3s-4.5 6.9-2.3 10.4z"/><path d="m249.5 261.5c1.4 2.2 3.9 3.5 6.3 3.5 1.4 0 2.8-.4 4-1.2 3.5-2.2 4.5-6.9 2.3-10.4l-28.8-45c-2.2-3.5-6.9-4.5-10.4-2.3s-4.5 6.9-2.3 10.4z"/><path d="m415.4 126.3c1.4 0 2.8-.4 4-1.2l44.8-28.7c3.5-2.2 4.5-6.9 2.3-10.4s-6.9-4.5-10.4-2.3l-44.8 28.7c-3.5 2.2-4.5 6.9-2.3 10.4 1.5 2.3 3.9 3.5 6.4 3.5z"/><path d="m372.9 68c.7.2 1.3.3 2 .3 3.3 0 6.3-2.2 7.2-5.5l14.2-51.2c1.1-4-1.2-8.1-5.2-9.2s-8.1 1.2-9.2 5.2l-14.2 51.2c-1.2 3.9 1.2 8.1 5.2 9.2z"/><path d="m504.3 167.7-53.1 1.5c-4.1.1-7.4 3.6-7.3 7.7s3.4 7.3 7.5 7.3h.2l53.1-1.5c4.1-.1 7.4-3.6 7.3-7.7-.1-4.2-3.5-7.4-7.7-7.3z"/></g></g></g></svg>