<?xml version="1.0"?>
<svg xmlns="http://www.w3.org/2000/svg" xmlns:xlink="http://www.w3.org/1999/xlink" xmlns:svgjs="http://svgjs.com/svgjs" version="1.1" width="512" height="512" x="0" y="0" viewBox="0 0 24 24" style="enable-background:new 0 0 512 512" xml:space="preserve"><g><g xmlns="http://www.w3.org/2000/svg" id="Layer_42" data-name="Layer 42"><path d="m18 12a1 1 0 0 1 -1 1h-10a1 1 0 0 1 0-2h10a1 1 0 0 1 1 1zm4 0a10 10 0 1 1 -10-10 10 10 0 0 1 10 10zm-2 0a8 8 0 1 0 -8 8 8 8 0 0 0 8-8z" fill="#ffffff" data-original="#000000" style=""/></g></g></svg>
