<svg id="Layer_1" enable-background="new 0 0 512.05 512.05" height="512" viewBox="0 0 512.05 512.05" width="512" xmlns="http://www.w3.org/2000/svg"><g><g clip-rule="evenodd" fill-rule="evenodd"><g><path d="m334.024 50.218c-24.257-9.207-50.565-14.247-78.051-14.247-121.503 0-220 98.497-220 220 0 20.588 2.828 40.516 8.117 59.416l4.589-1.371c33.105-7.239 61.874-13.531 94.978-20.77 11.764-2.573 17.07-2.046 26.748 4.847 11.907 8.482 20.115 14.329 32.023 22.811 8.334 5.936 10.567 12.204 8.936 22.4-1.54 9.626-2.271 14.191-3.811 23.818-1.848 11.545 2.812 20.24 12.847 24.12 10.959 4.238 16.719 6.465 27.679 10.703 14.952 5.782 13.126 6.052 17.219 21.521 4.606 17.41 8.299 31.363 12.905 48.773l.767 2.546c60.17-6.25 113.134-36.751 148.949-81.559l-1.634-1.379c-11.062-8.837-16.436-13.13-27.498-21.967-20.56-16.425-20.194-26.032-13.306-43.841 5.556-14.365 7.673-19.838 13.229-34.203 6.34-16.392 8.812-18.933-3.536-30.016-3.061-2.747-2.476-2.222-5.537-4.969-12.372-11.104-14.081-10.647-29.723-5.372-11.288 3.806-13.533 4.563-24.821 8.37-20.828 7.024-22.763 7.181-37.363-9.243-7.635-8.59-9.036-10.165-16.671-18.755-15.26-17.167-16.02-20.685-12.255-43.471 2.699-16.337 3.763-22.774 6.462-39.111 3.274-19.819 3.536-22.08 22.741-26.914 7.427-1.87 8.308-2.092 15.736-3.962 17.086-4.302 17.63-6.382 18.311-24.042.598-15.539 1.017-26.409 1.615-41.948z" fill="#60a4ff"/><g fill="#88df8e"><path d="m332.05 94.348c-.681 17.66-1.224 19.74-18.311 24.042-7.427 1.87-8.308 2.092-15.736 3.962-19.205 4.835-19.467 7.095-22.741 26.914-2.699 16.337-3.763 22.774-6.462 39.111-3.764 22.786-3.005 26.304 12.255 43.471 7.635 8.589 9.036 10.165 16.671 18.755 14.6 16.425 16.535 16.267 37.363 9.243 11.289-3.806 13.533-4.563 24.821-8.37 15.643-5.275 17.351-5.732 29.723 5.372 3.061 2.747 2.476 2.222 5.537 4.969 12.348 11.083 9.876 13.624 3.536 30.016-5.556 14.365-7.673 19.838-13.229 34.203-6.888 17.809-7.253 27.416 13.306 43.841 11.062 8.837 16.436 13.13 27.498 21.967l1.634 1.379c30.074-37.626 48.055-85.34 48.055-137.254 0-94.017-58.975-174.26-141.949-205.753l-.358 2.182c-.596 15.541-1.015 26.411-1.613 41.95z"/><path d="m202.428 320.903c-11.907-8.482-20.115-14.328-32.023-22.811-9.678-6.893-14.984-7.42-26.748-4.847-33.105 7.239-61.874 13.531-94.978 20.77l-4.589 1.371c25.924 92.639 110.969 160.584 211.883 160.584 7.766 0 15.438-.402 22.996-1.187l-.767-2.546c-4.606-17.41-8.299-31.363-12.905-48.773-4.093-15.469-2.267-15.739-17.219-21.521-10.959-4.238-16.719-6.465-27.679-10.703-10.035-3.88-14.695-12.576-12.847-24.12 1.54-9.627 2.271-14.192 3.811-23.818 1.632-10.196-.601-16.463-8.935-22.399z"/></g></g><path d="m268.841 347.537c-8.548-9.489-20.931-15.454-34.707-15.454-8.078 0-15.677 2.051-22.304 5.66-14.533 7.915-24.395 23.325-24.395 41.038 0 11.42 4.099 21.883 10.907 29.997 8.566 10.211 21.421 16.702 35.792 16.702 10.994 0 21.102-3.8 29.08-10.157 10.737-8.556 17.619-21.745 17.619-36.542 0-12.014-4.537-22.969-11.992-31.244z" fill="#f3f0f1"/></g><g><path d="m503.224 8.669c-10.83-10.83-29.611-11.517-55.821-2.04-22.745 8.224-50.786 23.76-83.345 46.16-32.883-17.553-69.78-26.867-108.11-26.867-45.036 0-88.666 13.03-126.171 37.682-4.615 3.033-5.897 9.233-2.864 13.849 3.031 4.614 9.231 5.898 13.849 2.864 34.234-22.501 74.065-34.395 115.187-34.395 23.607 0 46.315 3.917 67.512 11.132l-1.419 36.867c-.146 3.76-.386 10.004-1.107 11.527-.666.53-2.909 1.507-9.654 3.205l-15.737 3.962c-9.708 2.444-17.54 4.822-22.661 11.225-4.515 5.643-5.619 12.328-7.448 23.404l-6.521 39.471c-4.316 26.129-2.537 32.416 14.648 51.749l16.674 18.757c7.791 8.766 13.502 14.65 21.569 16.516 6.064 1.402 12.079.169 19.433-2.126-9.559 10.098-19.368 20.179-29.405 30.217-10.854 10.855-21.962 21.613-33.088 32.088-9.583-7.409-21.585-11.833-34.608-11.833-5.337 0-10.498.757-15.398 2.143-2.235-4.275-5.707-8.046-10.537-11.485l-32.026-22.814c-12.843-9.146-21.418-9.374-34.688-6.471l-90.202 19.725c-3.504-15.187-5.357-30.998-5.357-47.234 0-41.126 11.892-80.955 34.39-115.18 3.033-4.615 1.752-10.815-2.863-13.85-4.616-3.031-10.816-1.751-13.85 2.863-24.648 37.497-37.677 81.125-37.677 126.166 0 61.441 23.927 119.205 67.372 162.65 11.01 11.009 22.942 20.759 35.617 29.19-18.965 12.677-36.451 22.943-51.935 30.445-32.291 15.645-49.152 15.863-54.165 10.849-5.32-5.321-5.87-28.511 25.82-81.675 2.828-4.744 1.274-10.882-3.47-13.71-4.744-2.829-10.883-1.274-13.71 3.47-31.933 53.562-39.598 89.245-22.787 106.057 5.884 5.883 13.86 8.828 24.051 8.828 13.62 0 31.191-5.266 52.977-15.82 18.391-8.91 39.37-21.462 62.146-37.125 32.882 17.551 69.777 26.864 108.104 26.864 61.441 0 119.205-23.927 162.65-67.372s67.372-101.209 67.372-162.65c0-38.33-9.314-75.228-26.868-108.112 17.834-25.944 31.634-49.549 40.563-69.501 15.234-34.038 16.398-56.825 3.558-69.665zm-232.391 370.112c0 20.236-16.463 36.699-36.699 36.699-20.235 0-36.698-16.463-36.698-36.699 0-20.235 16.463-36.698 36.698-36.698 20.236-.001 36.699 16.462 36.699 36.698zm-214.106-56.319 89.03-19.468c9.602-2.101 11.889-1.709 18.812 3.222l32.027 22.814c2.137 1.522 3.381 2.81 4.12 3.987-14.1 10.324-23.28 26.989-23.28 45.764 0 10.169 2.705 19.713 7.412 27.975-13.075 10.356-25.77 19.921-37.965 28.612-41.969-25.607-74.293-65.518-90.156-112.906zm109.716 123.45c10.131-7.396 20.553-15.338 31.203-23.78 9.869 8.32 22.6 13.348 36.488 13.348 8.075 0 15.755-1.708 22.715-4.765l9.263 35.003c-3.368.161-6.756.25-10.163.25-31.997 0-62.339-7.204-89.506-20.056zm119.84 17.857-11.343-42.867c-.233-.88-.416-1.596-.572-2.216 10.17-10.253 16.465-24.357 16.465-39.905 0-11.032-3.178-21.331-8.651-30.05 11.362-10.692 22.707-21.678 33.791-32.761 19.041-19.041 37.276-38.247 54.549-57.428 1.792-.501 3.198-.783 3.921-.667 1.673.262 6.458 4.557 8.502 6.391l5.538 4.971c4.771 4.281 5.396 5.706 5.461 5.889.105 1.203-1.594 5.507-3.092 9.305-.464 1.175-.959 2.43-1.48 3.776l-13.23 34.206c-8.264 21.366-7.997 35.78 16.393 55.266l21.087 16.846c-32.197 36.585-76.888 61.913-127.339 69.244zm179.688-207.823c0 45.883-14.8 88.367-39.863 122.955l-21.091-16.848c-17.391-13.894-15.439-18.939-10.223-32.426l13.23-34.206c.503-1.302.981-2.514 1.43-3.649 2.979-7.551 5.133-13.006 4.321-19.227-.92-7.056-5.249-12.192-11.936-18.194l-5.537-4.969c-4.033-3.62-7.382-6.277-10.472-8.126 6.435-7.39 12.725-14.769 18.846-22.125 3.533-4.245 2.955-10.551-1.29-14.083-4.247-3.534-10.551-2.952-14.083 1.29-9.609 11.549-19.632 23.157-30.018 34.781-.836.272-1.692.555-2.586.856l-24.822 8.371c-6.489 2.188-13.201 4.457-15.571 3.904-2.271-.525-6.742-5.385-11.127-10.316l-16.673-18.757c-13.222-14.875-13.159-15.256-9.864-35.201l6.463-39.115.06-.357c1.117-6.765 2.082-12.606 3.332-14.17 1.322-1.653 8.754-3.524 11.927-4.323l15.737-3.962c9.099-2.291 16.42-4.545 20.977-10.857 4.247-5.885 4.529-13.217 4.888-22.5l1.146-29.779c38.281 17.549 70.416 46.268 92.198 81.969-5.577 7.824-11.64 16.031-18.221 24.627-3.357 4.386-2.523 10.662 1.861 14.02 1.814 1.389 3.951 2.061 6.072 2.061 3.006-.001 5.979-1.351 7.947-3.922 4.46-5.826 8.753-11.572 12.883-17.23 12.854 27.167 20.059 57.51 20.059 89.508zm-18.185-127.038c-8.43-12.674-18.179-24.604-29.188-35.612-11.007-11.007-22.937-20.756-35.609-29.186 69.585-46.528 99.784-47.607 106.092-41.298 7.935 7.934 1.463 42.1-41.295 106.096z"/><path d="m93.964 108.051c1.869 1.557 4.138 2.316 6.395 2.316 2.867 0 5.714-1.227 7.692-3.601 3.535-4.242 2.962-10.548-1.281-14.084-4.24-3.533-10.546-2.962-14.084 1.281l-.005.006c-3.536 4.243-2.959 10.546 1.283 14.082z"/></g></g></svg>