<svg id="icons" enable-background="new 0 0 64 64" height="512" viewBox="0 0 64 64" width="512" xmlns="http://www.w3.org/2000/svg"><g><g><path d="m13.5 1h20v12h-20z" fill="#ccd1d9"/></g><g><path d="m41.5 7v-3h-5v3zm0 6v-3h-5v3zm0 6v-3h-5v3zm-37 24h5v-3h-5zm5-6v-3h-5v3zm0-6v-3h-5v3zm0-6v-3h-5v3zm0-6v-3h-5v3zm0-6v-3h-5v3zm0-6v-3h-5v3zm32 15h-5v3h5zm-28 24h-12v-45h12v12h20v-12h11v26c-3.2 0-6.1.8-8.7 2.3-.8.5-1.6 1-2.3 1.5v-14.8h-20v15h19.7c-1.1.9-2.1 1.9-2.9 3h-16.8z" fill="#656d78"/></g><g><path d="m26.5 45v1h-13v-12h16.8c-2.4 3-3.8 6.9-3.8 11z" fill="#ccd1d9"/></g><g><path d="m33.5 56v3.3c-4-3.1-6.7-7.9-7-13.3 0-.3 0-.7 0-1 0-4.1 1.4-8 3.8-11 .9-1.1 1.8-2.1 2.9-3 .1-.1.2-.2.3-.2.7-.6 1.5-1.1 2.3-1.5 1 3.9 4.5 6.8 8.7 6.8s7.7-2.9 8.7-6.8c5.5 3.1 9.3 9 9.3 15.8 0 5.8-2.7 10.9-7 14.2v-3.3c0-1.7-1.3-3-3-3h-1v-5-1c0-3.9-3.1-7-7-7s-7 3.1-7 7v1 5h-1c-1.6 0-3 1.3-3 3z" fill="#ac92ec"/></g><g><path d="m33.5 30.8c-.1.1-.2.2-.3.3h-19.7v-15.1h20z" fill="#ccd1d9"/></g><g><path d="m47.5 59v3.7c-1 .2-2 .3-3 .3s-2-.1-3-.3v-.2-3.5z" fill="#f5f7fa"/></g><g><path d="m53.2 29.3c-1 3.9-4.5 6.8-8.7 6.8s-7.7-2.9-8.7-6.8c2.6-1.4 5.6-2.3 8.7-2.3s6.1.8 8.7 2.3z" fill="#e6e9ed"/></g><g><path d="m38.5 62c-1.8-.6-3.5-1.6-5-2.7v-3.3c0-1.7 1.3-3 3-3h1 14 1c1.7 0 3 1.3 3 3v3.2c-1.5 1.2-3.2 2.1-5 2.8-1 .3-2 .6-3 .8v-3.8h-6v3.8c-1-.2-2-.5-3-.8z" fill="#e6e9ed"/></g><g><path d="m38.5 49h-1c-.6 0-1-.4-1-1s.4-1 1-1h1c.6 0 1 .4 1 1s-.4 1-1 1z" fill="#aab2bd"/></g><g><path d="m51.5 49h-1c-.6 0-1-.4-1-1s.4-1 1-1h1c.6 0 1 .4 1 1s-.4 1-1 1z" fill="#aab2bd"/></g><g><path d="m31.5 45c-.6 0-1-.4-1-1v-2c0-.6.4-1 1-1s1 .4 1 1v2c0 .5-.4 1-1 1z" fill="#ffce54"/></g><g><path d="m32.5 44h-2c-.6 0-1-.4-1-1s.4-1 1-1h2c.6 0 1 .4 1 1s-.4 1-1 1z" fill="#ffce54"/></g><g><path d="m54.6 38c-.6 0-1-.4-1-1s.4-1 1-1c.6 0 1 .4 1 1s-.5 1-1 1z" fill="#ffce54"/></g><g><path d="m57.6 46c-.6 0-1-.4-1-1s.4-1 1-1c.6 0 1 .4 1 1s-.5 1-1 1z" fill="#ffce54"/></g><path d="m52.5 59c0-.6-.4-1-1-1s-1 .4-1 1v3c.7-.2 1.4-.5 2-.9z" fill="#ccd1d9"/><path d="m37.5 58c-.6 0-1 .4-1 1v2.1c.6.3 1.3.6 2 .9v-3c0-.6-.4-1-1-1z" fill="#ccd1d9"/><g><path d="m48.5 50v-4h-8v4zm3-2v5h-14v-5-1c0-3.9 3.1-7 7-7s7 3.1 7 7z" fill="#ccd1d9"/></g><g><path d="m40.5 46h8v4h-8z" fill="#5d9cec"/></g></g></svg>