<svg height="512pt" viewBox="0 -11 512 512" width="512pt" xmlns="http://www.w3.org/2000/svg"><path d="m370 450v30h-160v-40c0-12.941406-2.460938-25.308594-6.929688-36.660156 15.800782-25.96875 44.371094-43.339844 76.929688-43.339844 49.628906 0 90 40.371094 90 90zm0 0" fill="#76e2f8"/><path d="m502 100c0 49.707031-40.292969 90-90 90s-90-40.292969-90-90 40.292969-90 90-90 90 40.292969 90 90zm0 0" fill="#ff637b"/><path d="m280 200.019531c33.128906 0 59.980469 26.851563 59.980469 59.980469s-26.851563 59.980469-59.980469 59.980469-59.988281-26.851563-59.988281-59.980469 26.859375-59.980469 59.988281-59.980469zm0 0" fill="#76e2f8"/><path d="m210 440v40h-200v-40c0-55.230469 44.769531-100 100-100 55.136719 0 100 44.675781 100 100zm0 0" fill="#ff637b"/><path d="m179.980469 230c0 38.648438-31.332031 69.980469-69.980469 69.980469s-69.980469-31.332031-69.980469-69.980469 31.332031-69.980469 69.980469-69.980469 69.980469 31.332031 69.980469 69.980469zm0 0" fill="#ff637b"/><path d="m412 0c-55.140625 0-100 44.859375-100 100s44.859375 100 100 100 100-44.859375 100-100-44.859375-100-100-100zm0 180c-44.113281 0-80-35.886719-80-80s35.886719-80 80-80 80 35.886719 80 80-35.886719 80-80 80zm0 0"/><path d="m442 90h-20v-20c0-5.523438-4.476562-10-10-10s-10 4.476562-10 10v20h-20c-5.523438 0-10 4.476562-10 10s4.476562 10 10 10h20v20c0 5.523438 4.476562 10 10 10s10-4.476562 10-10v-20h20c5.523438 0 10-4.476562 10-10s-4.476562-10-10-10zm0 0"/><path d="m110 309.980469c44.101562 0 79.980469-35.878907 79.980469-79.980469s-35.878907-79.980469-79.980469-79.980469-79.980469 35.878907-79.980469 79.980469 35.878907 79.980469 79.980469 79.980469zm0-139.960938c33.074219 0 59.980469 26.90625 59.980469 59.980469s-26.90625 59.980469-59.980469 59.980469-59.980469-26.90625-59.980469-59.980469 26.90625-59.980469 59.980469-59.980469zm0 0"/><path d="m210.011719 260c0 38.585938 31.394531 69.980469 69.988281 69.980469 38.585938 0 69.980469-31.394531 69.980469-69.980469s-31.394531-69.980469-69.980469-69.980469c-38.59375 0-69.988281 31.394531-69.988281 69.980469zm69.988281-49.980469c27.558594 0 49.980469 22.421875 49.980469 49.980469s-22.421875 49.980469-49.980469 49.980469c-27.5625 0-49.988281-22.421875-49.988281-49.980469s22.425781-49.980469 49.988281-49.980469zm0 0"/><path d="m120 480c0 5.523438-4.476562 10-10 10s-10-4.476562-10-10 4.476562-10 10-10 10 4.476562 10 10zm0 0"/><path d="m10 490h55c5.523438 0 10-4.476562 10-10s-4.476562-10-10-10h-45v-30c0-49.625 40.375-90 90-90 49.894531 0 90 40.417969 90 90v30h-45c-5.523438 0-10 4.476562-10 10s4.476562 10 10 10h215c5.523438 0 10-4.476562 10-10v-30c0-55.140625-44.859375-100-100-100-29.320312 0-56.390625 12.507812-75.214844 34.125-18.871094-31.996094-53.886718-54.125-94.785156-54.125-60.652344 0-110 49.347656-110 110v40c0 5.523438 4.476562 10 10 10zm270-120c44.113281 0 80 35.886719 80 80v20h-140v-30c0-12.148438-1.957031-24.03125-5.824219-35.40625 14.984375-21.746094 39.253907-34.59375 65.824219-34.59375zm0 0"/></svg>