<svg id="Capa_1" enable-background="new 0 0 512 512" height="512" viewBox="0 0 512 512" width="512" xmlns="http://www.w3.org/2000/svg"><g><path d="m340.208 339.128-23.19-23.19 77.923-77.923v-191.941c0-3.971-3.219-7.19-7.19-7.19h-74.777v45.385h-179.869v-45.384h-74.777c-3.971 0-7.19 3.219-7.19 7.19v451.235c0 3.971 3.219 7.19 7.19 7.19h329.423c3.971 0 7.19-3.219 7.19-7.19v-212.914z" fill="#e7a52e"/><path d="m340.208 339.128-23.19-23.19 52.922-52.922v-191.096c0-4.438-3.598-8.036-8.036-8.036h-48.931v20.385h-179.868v-20.384h-48.931c-4.438 0-8.036 3.598-8.036 8.036v399.544c0 4.438 3.598 8.036 8.036 8.036h183.101c23.486 0 42.525-19.039 42.525-42.525v-9.576c0-4.44 3.6-8.04 8.04-8.04h9.575c23.486 0 42.525-19.039 42.525-42.525v-67.439z" fill="#f6f9f9"/><path d="m361.905 63.885h-31.965v239.131l40-40v-191.096c0-4.438-3.598-8.035-8.035-8.035z" fill="#dddaec"/><path d="m329.94 328.86v27.975c0 23.486-19.039 42.525-42.525 42.525-9.728 0-17.614 7.886-17.614 17.614 0 23.486-19.039 42.525-42.525 42.525h-151.137v11.964c0 4.438 3.598 8.036 8.036 8.036h183.101c23.486 0 42.525-19.039 42.525-42.525v-9.574c0-4.44 3.6-8.04 8.04-8.04h9.575c23.486 0 42.525-19.039 42.525-42.525v-67.439l-29.732 29.732z" fill="#dddaec"/><path d="m312.973 84.269h-179.868v14.769c0 6.409 5.195 11.604 11.604 11.604h156.659c6.409 0 11.604-5.195 11.604-11.604v-14.769z" fill="#a7a2d3"/><path d="m307.171 33.082h-53.912c-2.451 0-4.579-1.753-4.976-4.172-1.992-12.144-12.536-21.41-25.244-21.41s-23.252 9.266-25.244 21.41c-.397 2.419-2.525 4.172-4.976 4.172h-53.912c-3.204 0-5.802 2.598-5.802 5.802v45.385h179.868v-45.384c0-3.205-2.598-5.803-5.802-5.803z" fill="#d0cee7"/><path d="m369.94 376.835c0 27.228-10.816 53.341-30.07 72.595-19.253 19.253-45.367 30.07-72.595 30.07 23.486 0 42.525-19.039 42.525-42.525v-7.964c0-5.33 4.321-9.65 9.65-9.65h7.964c23.487-.001 42.526-19.04 42.526-42.526z" fill="#f6f9f9"/><path d="m263.321 369.635c-1.543 1.543-3.02 3.148-4.429 4.812l22.807 22.807c1.664-1.409 3.269-2.886 4.812-4.429l53.697-53.697-23.19-23.19z" fill="#5e54ac"/><path d="m254.903 379.572-16.92 23.687c-2.718 3.805-2.896 9.004-.106 12.757 3.533 4.75 10.081 5.667 14.736 2.343l23.961-17.115c1.763-1.259 3.473-2.59 5.125-3.989l-22.807-22.807c-1.399 1.651-2.73 3.361-3.989 5.124z" fill="#75cef9"/><path d="m311.732 270.381h115.269v32.796h-115.269z" fill="#75cef9" transform="matrix(.707 -.707 .707 .707 -94.599 345.177)"/><path d="m398.525 234.43 21.656-21.656c.596-.596 1.563-.596 2.16 0l21.031 21.031c.596.596.596 1.563 0 2.16l-21.656 21.656z" fill="#5e54ac"/><path d="m438.352 197.332-15.727 15.727 20.462 20.462 15.727-15.727c2.741-2.741 2.741-7.184 0-9.925l-10.537-10.537c-2.741-2.741-7.184-2.741-9.925 0z" fill="#75cef9"/><path d="m277.022 202.21-68.954 67.764c-.662.651-1.736.651-2.398 0l-36.614-35.982c-.662-.651-1.736-.651-2.398 0l-22.484 22.096c-.662.651-.662 1.706 0 2.356l61.497 60.435c.662.651 1.736.651 2.398 0l93.836-92.216c.662-.651.662-1.706 0-2.356l-22.485-22.097c-.662-.651-1.736-.651-2.398 0z" fill="#b3e59f"/><circle cx="223.039" cy="33.082" r="7.5"/><path d="m387.751 31.385h-69.599c-2.399-3.501-6.426-5.802-10.981-5.802h-51.902c-3.443-14.948-16.67-25.583-32.23-25.583-15.559 0-28.786 10.635-32.229 25.583h-51.902c-4.555 0-8.582 2.301-10.981 5.802h-69.599c-8.101 0-14.69 6.59-14.69 14.689v451.236c0 8.1 6.59 14.689 14.69 14.689h329.423c8.1 0 14.689-6.59 14.689-14.689v-169.009c1.024-.361 1.986-.951 2.806-1.77l54.058-54.058c2.929-2.929 2.929-7.678 0-10.606l-15.614-15.614 4.982-4.982c1.451-1.45 2.347-3.306 2.583-5.312l12.863-12.862c5.659-5.66 5.659-14.87-.001-20.531l-10.537-10.538c-5.66-5.66-14.872-5.66-20.53 0l-12.87 12.869c-1.939.232-3.817 1.09-5.303 2.574l-12.437 12.437v-173.834c0-8.099-6.589-14.689-14.689-14.689zm-47.543 297.137-12.584-12.584c7.128-7.128 62.379-62.379 70.901-70.901l12.584 12.584zm11.708 91.918c-9.031 17.479-23.539 31.996-41.036 41.035.773-1.364 1.575-2.959 2.264-4.538 2.683-6.14 4.084-12.757 4.153-19.391.005-.427.004-.517.004-8.535 0-1.186.965-2.15 2.15-2.15 8.282 0 8.615.013 9.951-.039 5.826-.228 11.543-1.469 16.904-3.664 0 0 .001 0 .001-.001 1.911-.782 3.802-1.698 5.609-2.717zm-70.024-33.601-12.584-12.584 47.709-47.71 12.584 12.584zm-11.565 9.649-22.074 15.768c-1.401 1-3.316.685-4.357-.716-.771-1.037-.691-2.687.19-3.921l15.572-21.8zm117.113-161.58-10 10v-172.988c0-8.566-6.97-15.536-15.536-15.536h-41.431v-10h66.967zm-194.621-194.325c6.179 0 11.384-4.399 12.377-10.458 1.438-8.764 8.942-15.125 17.843-15.125s16.405 6.361 17.843 15.123c.993 6.061 6.198 10.459 12.377 10.459h52.215v36.187h-88.271c-4.143 0-7.5 3.358-7.5 7.5s3.357 7.5 7.5 7.5h88.271v7.27c0 2.263-1.841 4.104-4.104 4.104h-156.66c-2.264 0-4.104-1.841-4.104-4.104v-7.27h41.597c4.143 0 7.5-3.358 7.5-7.5s-3.357-7.5-7.5-7.5h-41.597v-36.186zm-134.181 456.417v-450.615h66.968v10h-41.432c-8.566 0-15.535 6.969-15.535 15.536v69.809c0 4.142 3.357 7.5 7.5 7.5s7.5-3.358 7.5-7.5v-69.81c0-.295.24-.536.535-.536h41.432v27.654c0 10.534 8.57 19.104 19.104 19.104h156.659c10.534 0 19.104-8.57 19.104-19.104v-27.653h41.431c.296 0 .536.24.536.536v187.988c-12.021 12.021-91.383 91.384-104.423 104.423-3.36 3.36-6.445 6.999-9.219 10.882l-16.918 23.686c-4.711 6.596-4.72 15.272-.021 21.591 5.951 8.001 16.977 9.781 25.112 3.97l23.962-17.115c3.771-2.693 7.444-5.782 10.882-9.218 6.676-6.676 61.317-61.318 70.625-70.625v49.332c0 19.28-15.677 35.025-35.025 35.025h-9.574c-8.568 0-15.54 6.971-15.54 15.54v9.574c0 19.313-15.712 35.025-35.025 35.025h-183.102c-.295 0-.535-.24-.535-.536v-294.734c0-4.142-3.357-7.5-7.5-7.5s-7.5 3.358-7.5 7.5v294.735c0 8.566 6.969 15.536 15.535 15.536h183.102c29.427 0 57.092-11.459 77.897-32.267 20.809-20.807 32.268-48.471 32.268-77.897v-64.333l10-10v194.497zm384.755-229.83-40.953 40.953v-20.62l30.643-30.643zm.262-64.535c.001 0 .001 0 0 0 0 .001-.001.001-.002.002zm-.341.341 9.855 9.855-10.083 10.083-9.856-9.856zm-22.053 19.325 12.583 12.584c-.417.417-10.008 10.008-12.128 12.129l-12.584-12.584z"/><path d="m200.413 324.228c3.558 3.498 9.352 3.501 12.912 0l22.32-21.936c2.954-2.903 2.996-7.652.093-10.606-2.904-2.954-7.652-2.995-10.606-.092l-18.263 17.947-53.194-52.275 14.183-13.938 32.558 31.996c3.559 3.496 9.35 3.496 12.91-.001l64.896-63.776 14.183 13.937-42.164 41.437c-2.954 2.903-2.996 7.652-.093 10.606 2.904 2.955 7.653 2.996 10.606.092l46.407-45.606c1.742-1.711 2.74-4.091 2.74-6.529s-.998-4.817-2.739-6.527l-22.485-22.098c-3.559-3.496-9.35-3.496-12.91.001l-64.896 63.776-32.555-31.994c-3.561-3.5-9.354-3.5-12.913 0l-22.485 22.097c-1.766 1.736-2.738 4.054-2.738 6.527s.973 4.791 2.739 6.527z"/></g></svg>