<svg id="Capa_1" enable-background="new 0 0 511.727 511.727" height="512" viewBox="0 0 511.727 511.727" width="512" xmlns="http://www.w3.org/2000/svg"><g><g><g><g><path d="m494.356 436.74h-415.611c-5.452 0-9.871-4.419-9.871-9.871v-284.947c0-5.452 4.419-9.871 9.871-9.871h415.611c5.452 0 9.871 4.419 9.871 9.871v284.948c0 5.451-4.42 9.87-9.871 9.87z" fill="#fedba6"/></g></g><g><g><path d="m504.224 141.927v284.948c0 5.444-4.42 9.864-9.864 9.864h-20.274c5.444 0 9.863-4.42 9.863-9.864v-284.948c0-5.454-4.42-9.874-9.863-9.874h20.274c5.444 0 9.864 4.42 9.864 9.874z" fill="#fece85"/></g></g><g><path d="m91.369 436.74 184.327-143.873c6.379-4.979 15.329-4.979 21.708 0l184.327 143.873z" fill="#fece85"/></g><g><path d="m481.729 436.738h-33.808l-175.232-136.772c-1.075-.841-2.22-1.53-3.416-2.088l6.427-5.008c6.376-4.977 15.327-4.977 21.704 0z" fill="#fec165"/></g><g><path d="m286.55 132.051h-207.805c-5.452 0-9.871 4.419-9.871 9.871v91.663l209.447 110.466c5.15 2.716 11.309 2.716 16.459 0l209.447-110.466v-91.663c0-5.452-4.419-9.871-9.871-9.871z" fill="#fdb441"/></g><g><path d="m494.36 132.053h-7.41-12.864c5.444 0 9.863 4.42 9.863 9.874v76.036c0 3.081-1.692 5.913-4.406 7.373l-13.304 7.157-193.215 104.008c-1.733.933-3.578 1.561-5.464 1.875l10.766 5.677c5.15 2.717 11.303 2.717 16.453 0l189.171-99.771 20.274-10.695v-91.671c0-5.447-4.416-9.863-9.864-9.863z" fill="#fea613"/></g></g><g><path d="m298.551 157.073-92.69-79.671c-6.405-5.505-16.316-.955-16.316 7.491v23.81c0 3.615-2.931 6.546-6.546 6.546h-108.342c-37.09 0-67.157 30.067-67.157 67.157v31.468c0 27.088 21.959 49.048 49.048 49.048h12.372v-18.71c0-16.755 13.583-30.337 30.337-30.337h83.743c3.615 0 6.546 2.931 6.546 6.546v23.811c0 8.445 9.911 12.996 16.316 7.491l92.69-79.668c4.585-3.941 4.585-11.04-.001-14.982z" fill="#cb97e7"/></g><g><path d="m298.55 172.052-92.685 79.669c-6.407 5.504-16.321.953-16.321-7.492v-23.812c0-3.609-2.93-6.538-6.549-6.538h-83.742c-16.751 0-30.331 13.58-30.331 30.331v18.713h-12.378c-3.619 0-7.157-.395-10.553-1.145 0-10.821 0-21.642 0-32.463 0-18.771 16.318-37.366 35.345-38.082 9.175-.345 66.168 0 85.447 0h1.594 27.198c5.397 0 9.772 4.375 9.772 9.772v7.538c0 4.459 5.233 6.862 8.615 3.956l73.435-63.093c.375-.324.72-.669 1.034-1.034l10.117 8.698c4.584 3.942 4.584 11.048.002 14.982z" fill="#bd80e1"/></g><path d="m494.355 124.55h-108.463c-4.143 0-7.5 3.357-7.5 7.5s3.357 7.5 7.5 7.5h108.464c1.308 0 2.371 1.063 2.371 2.371v87.14l-205.448 108.356c-2.963 1.563-6.5 1.562-9.459 0l-201.336-106.187c4.127-5.949 11.001-9.854 18.773-9.854h82.789v22.856c0 6.874 3.88 12.925 10.127 15.793 6.246 2.87 13.366 1.867 18.578-2.614l92.689-79.668c3.845-3.305 6.051-8.107 6.051-13.178s-2.204-9.873-6.05-13.179l-13.77-11.836h61.36c4.143 0 7.5-3.357 7.5-7.5s-3.357-7.5-7.5-7.5h-78.811l-61.47-52.835c-5.212-4.479-12.331-5.484-18.578-2.614-6.247 2.867-10.127 8.919-10.127 15.793v22.855h-107.388c-39.302 0-72.029 30.696-74.507 69.882-.262 4.134 2.878 7.697 7.012 7.959 4.126.26 7.697-2.877 7.958-7.012 1.979-31.307 28.131-55.829 59.537-55.829h108.343c7.745 0 14.046-6.301 14.046-14.046v-23.81c0-1.261.753-1.871 1.385-2.161.519-.237 1.536-.507 2.542.357l92.69 79.671c.72.619.827 1.396.827 1.803 0 .408-.107 1.185-.828 1.804l-92.689 79.668c-1.006.865-2.024.596-2.542.357-.518-.237-1.386-.834-1.386-2.161v-23.811c0-7.745-6.301-14.046-14.046-14.046h-83.742c-20.864 0-37.837 16.974-37.837 37.837v11.21h-4.873c-22.909.001-41.547-18.636-41.547-41.545v-1.09c0-4.143-3.358-7.5-7.5-7.5s-7.5 3.357-7.5 7.5v1.09c0 31.18 25.367 56.547 56.547 56.547h4.827v156.447c0 9.578 7.792 17.371 17.371 17.371h415.61c9.578 0 17.371-7.793 17.371-17.371v-284.949c.001-9.578-7.792-17.371-17.371-17.371zm-417.981 302.32.045-180.825 147.446 77.765-135.076 105.431h-10.044c-1.307 0-2.371-1.064-2.371-2.371zm36.793 2.371 125.246-97.759 36.408 19.202c3.673 1.938 7.7 2.905 11.729 2.905 4.027 0 8.056-.969 11.728-2.905l36.409-19.202 125.247 97.759zm383.56-2.371c0 1.308-1.063 2.371-2.371 2.371h-10.044l-135.077-105.432 147.492-77.789z"/></g></svg>