<?xml version="1.0" encoding="iso-8859-1"?>
<!-- Generator: Adobe Illustrator 19.0.0, SVG Export Plug-In . SVG Version: 6.00 Build 0)  -->
<svg xmlns="http://www.w3.org/2000/svg" xmlns:xlink="http://www.w3.org/1999/xlink" version="1.1" id="Layer_1" x="0px" y="0px" viewBox="0 0 504.981 504.981" style="enable-background:new 0 0 504.981 504.981;" xml:space="preserve" width="512" height="512">
<g>
	<g>
		<path style="fill:#EFEFEF;" d="M244.933,45.317h19.176c9.423,0,17.07,7.648,17.07,17.07c0,4.711-1.912,8.979-5.007,12.063    c-3.084,3.095-7.352,5.007-12.063,5.007h-13.144"/>
		<path style="fill:#EFEFEF;" d="M250.964,79.458h13.144c9.423,0,17.07,7.648,17.07,17.07c0,4.711-1.912,8.979-5.007,12.063    c-3.084,3.095-7.352,5.007-12.063,5.007h-10.561"/>
		<path style="fill:#FFDC8D;" d="M121.173,156.927V72.657c0-35.842,29.055-64.897,64.897-64.897h0    c35.842,0,64.897,29.055,64.897,64.897v32.932l31.465,97.607h-31.465v17.824c0,34.687-28.119,62.806-62.806,62.806h-2.091    c-35.842,0-64.897-29.055-64.897-64.897v-15.898"/>
		<path style="fill:#E8C57E;" d="M141.657,218.93v-15.898v-46.105V72.657c0-32.356,23.681-59.173,54.655-64.085    c-3.337-0.529-6.756-0.812-10.242-0.812h0c-35.842,0-64.897,29.055-64.897,64.897v84.269v46.105v15.898    c0,35.842,29.055,64.897,64.897,64.897h2.091c3.103,0,6.15-0.234,9.132-0.669C165.84,278.662,141.657,251.626,141.657,218.93z"/>
		<path style="fill:#E8C57E;" d="M135.675,163.622c-9.034-9.034-23.681-9.034-32.714,0s-9.034,23.681,0,32.714    s23.681,9.034,32.714,0"/>
		<path style="fill:#EFEFEF;" d="M281.987,379.742c0,13.59-2.82,40.77-7.93,73.65c-2.01,16.2-3.24,30.98-3.93,44.09h-166.82    c-1.18-14.69-2.85-30.03-5.22-44.09c-5.11-32.88-7.93-60.06-7.93-73.65c0-52.98,42.94-95.91,95.92-95.91    C239.047,283.832,281.987,326.762,281.987,379.742z"/>
		<path style="fill:#CCCCCC;" d="M129.277,379.742c0,13.59,1.67,40.77,4.69,73.65c1.41,14.06,2.4,29.4,3.09,44.09h-33.75    c-1.18-14.69-2.85-30.03-5.22-44.09c-5.11-32.88-7.93-60.06-7.93-73.65c0-52.98,42.94-95.91,95.92-95.91    C154.707,283.832,129.277,326.762,129.277,379.742z"/>
		<circle style="fill:#78CAEF;" cx="210.948" cy="154.51" r="26.633"/>
		<circle style="fill:#78CAEF;" cx="295.167" cy="154.51" r="26.633"/>
		<path style="fill:#EFEFEF;" d="M157.134,45.317H91.128c-9.428,0-17.07,7.643-17.07,17.07v0c0,9.428,7.643,17.07,17.07,17.07    h66.006"/>
		<g>
			<path style="fill:#EFEFEF;" d="M157.134,79.458h-56.005c-9.428,0-17.07,7.643-17.07,17.07v0c0,9.428,7.643,17.07,17.07,17.07     h56.005"/>
		</g>
		<polygon style="fill:#4BC999;" points="55.174,395.819 32.414,431.098 74.692,432.177   "/>
		<polygon style="fill:#4BC999;" points="361.153,321.278 402.193,312.427 373.061,281.769   "/>
		<ellipse style="fill:#595259;" cx="201.061" cy="229.77" rx="25.5" ry="18"/>
		<path style="fill:#F9C55F;" d="M346.448,28.5v79.269c0,11.598,9.402,21,21,21h0v39l79-39h29.997c11.598,0,21-9.402,21-21V28.5    c0-11.598-9.402-21-21-21H367.448C355.85,7.5,346.448,16.902,346.448,28.5z"/>
	</g>
	<g>
		<path d="M380.736,278.959c-2.111-8.587-4.114-18.96-2.781-26.957c0.038-0.231,0.065-0.464,0.082-0.699l2-28    c0.296-4.131-2.814-7.72-6.946-8.015c-4.133-0.297-7.721,2.815-8.015,6.947L363.45,245l-8.949,2.556    c-3.983,1.138-6.29,5.289-5.152,9.271c0.8,2.8,3.094,4.757,5.767,5.286c-2.49,1.292-4.156,3.927-4.05,6.917    c0.142,4.05,3.47,7.237,7.49,7.237c0.089,0,0.178-0.001,0.268-0.004l5.874-0.206c0.303,1.468,0.623,2.908,0.952,4.311    l-11.678,38.745c-0.767,2.542-0.132,5.3,1.669,7.25c1.436,1.556,3.441,2.414,5.512,2.414c0.525,0,1.056-0.055,1.581-0.168    l15.168-3.271l0.55,2.158c6.538,28.351,4.086,45.689-8.194,57.969c-9.214,9.214-18.823,12.908-29.396,11.289    c-23.729-3.635-46.981-33.315-59.683-57.628c-0.008-0.016-0.018-0.03-0.027-0.045c-7.065-16.457-18.283-30.722-32.327-41.476    c-0.112-0.105-0.219-0.213-0.339-0.312c-0.299-0.248-0.615-0.461-0.939-0.655c-7.802-5.786-16.442-10.502-25.703-13.927    c21.803-11.953,36.62-35.124,36.62-61.693v-10.322h23.967c2.397,0,4.651-1.146,6.063-3.084c1.412-1.938,1.812-4.435,1.076-6.717    l-4.436-13.76c3.174,0.978,6.542,1.507,10.032,1.507c18.821,0,34.133-15.312,34.133-34.132s-15.312-34.133-34.133-34.133    c-11.087,0-20.953,5.317-27.192,13.531l-4.129-12.809h0.264c6.57,0,12.741-2.562,17.355-7.194    c4.652-4.635,7.215-10.806,7.215-17.376c0-6.627-2.642-12.646-6.923-17.07c4.464-4.599,6.923-10.642,6.923-17.071    c0-13.548-11.022-24.57-24.57-24.57h-14.557c-3.264-5.928-7.372-11.436-12.29-16.353C223.589,7.792,205.411,0.262,186.074,0.262    c-26.433,0-50.833,14.593-63.465,37.554H91.127c-13.548,0-24.57,11.022-24.57,24.571c0,9.495,5.417,17.743,13.32,21.832    c-2.106,3.622-3.319,7.825-3.319,12.309c0,13.548,11.022,24.571,24.57,24.571h56.005c4.143,0,7.5-3.358,7.5-7.5    s-3.357-7.5-7.5-7.5h-56.005c-5.277,0-9.57-4.293-9.57-9.571c0-5.277,4.293-9.57,9.57-9.57h56.005c4.143,0,7.5-3.358,7.5-7.5    s-3.357-7.5-7.5-7.5h-56.005H91.127c-5.277,0-9.57-4.293-9.57-9.57s4.293-9.571,9.57-9.571h66.006c4.143,0,7.5-3.358,7.5-7.5    s-3.357-7.5-7.5-7.5h-16.665c10.73-13.989,27.572-22.554,45.605-22.554c15.33,0,29.743,5.969,40.582,16.809    c10.839,10.839,16.809,25.251,16.809,40.582v32.935c0,0.781,0.122,1.558,0.361,2.301l12.612,39.121H244.24    c-3.428-15.223-17.048-26.633-33.292-26.633s-29.864,11.409-33.292,26.633h-19.973c-4.143,0-7.5,3.358-7.5,7.5s3.357,7.5,7.5,7.5    h19.973c3.428,15.223,17.048,26.632,33.292,26.632s29.865-11.409,33.292-26.632h17.033l10.86,33.687h-21.169    c-4.143,0-7.5,3.358-7.5,7.5v17.822c0,30.497-24.811,55.308-55.308,55.308h-2.083c-31.651,0-57.401-25.745-57.401-57.391v-9.8    c4.503-1.437,8.739-3.929,12.306-7.496c2.93-2.929,2.93-7.677,0.001-10.606s-7.678-2.929-10.606,0    c-6.096,6.095-16.013,6.095-22.108,0c-6.095-6.095-6.095-16.013-0.001-22.108c6.096-6.095,16.014-6.095,22.109,0    c2.928,2.93,7.677,2.929,10.606,0c2.929-2.929,2.929-7.678-0.001-10.606c-3.566-3.566-7.802-6.059-12.306-7.496v-13.723    c0-4.142-3.357-7.5-7.5-7.5s-7.5,3.358-7.5,7.5v12.785c-5.871,1.093-11.483,3.901-16.016,8.433    c-11.942,11.944-11.942,31.377,0.001,43.321c4.532,4.532,10.144,7.34,16.015,8.433v8.863c0,27.299,15.196,51.109,37.569,63.439    c-9.563,3.431-18.477,8.231-26.506,14.165c-9.096,2.101-33.696,8.165-58.656,17.634c-44.44,16.859-66.043,35.074-66.043,55.687    c0,19.905,16.764,32.316,34.812,43.63l-8.736,13.541c-1.471,2.278-1.596,5.173-0.329,7.57c1.267,2.397,3.729,3.924,6.439,3.993    l38.227,0.976c5.754,7.448,6.138,14.808,1.371,24.099c-1.891,3.685-0.437,8.206,3.248,10.097c1.097,0.563,2.266,0.829,3.419,0.829    c2.723,0,5.35-1.488,6.679-4.077c3.49-6.8,5.132-13.366,4.944-19.668c0.191,1.257,0.384,2.518,0.582,3.788    c2.091,12.404,3.82,27.021,5.141,43.444c0.313,3.896,3.566,6.899,7.476,6.899h166.819c3.989,0,7.28-3.122,7.489-7.105    c0.653-12.411,1.744-25.26,3.24-38.191c0.477-4.115-2.474-7.836-6.588-8.313c-4.112-0.48-7.836,2.474-8.313,6.588    c-1.249,10.791-2.222,21.53-2.901,32.021H193.57V312.35l15.771,27.917c1.214,2.147,3.404,3.561,5.861,3.781    c0.224,0.02,0.447,0.03,0.67,0.03c2.219,0,4.338-0.985,5.77-2.709l23.043-27.757c18.267,16.208,29.801,39.846,29.801,66.13    c0,10.841-1.891,30.693-5.187,54.468c-0.569,4.103,2.296,7.89,6.398,8.458c4.094,0.568,7.89-2.295,8.459-6.399    c3.387-24.425,5.329-45.029,5.329-56.527c0-0.326-0.009-0.65-0.012-0.976c12.479,15.097,29.325,29.784,49.116,32.816    c2.401,0.368,4.772,0.551,7.115,0.551c12.682,0,24.481-5.383,35.159-16.061c20.754-20.754,17.413-49.396,12.184-72.031    c-0.013-0.055-0.025-0.109-0.04-0.163l-0.434-1.705l11.2-2.416c2.65-0.572,4.786-2.53,5.586-5.121    c0.799-2.591,0.138-5.412-1.73-7.377L380.736,278.959z M210.948,173.642c-10.55,0-19.133-8.583-19.133-19.132    s8.583-19.133,19.133-19.133s19.133,8.583,19.133,19.133S221.498,173.642,210.948,173.642z M295.167,135.377    c10.55,0,19.133,8.583,19.133,19.133s-8.583,19.132-19.133,19.132s-19.133-8.583-19.133-19.132S284.617,135.377,295.167,135.377z     M270.858,103.298c-1.799,1.806-4.196,2.801-6.749,2.801h-5.099l-0.545-1.691v-17.45h5.645c5.277,0,9.57,4.293,9.57,9.571    C273.679,99.082,272.684,101.479,270.858,103.298z M264.109,52.817c5.277,0,9.57,4.293,9.57,9.57c0,2.553-0.995,4.95-2.821,6.77    c-1.799,1.806-4.196,2.801-6.749,2.801h-5.661c-0.062-6.564-0.997-12.985-2.74-19.141H264.109z M172.64,292.351l-17.551,31.066    l-15.596-18.787C149.41,298.458,160.629,294.189,172.64,292.351z M45.957,423.941l8.625-13.369l7.396,13.778L45.957,423.941z     M82.657,379.742c0,12.819,2.336,36.105,6.345,63.67c-1.297-4.757-3.713-9.346-7.252-13.749c-0.125-0.352-0.27-0.699-0.45-1.034    l-19.518-36.358c-1.256-2.339-3.654-3.84-6.308-3.947c-2.637-0.1-5.164,1.197-6.603,3.428l-5.893,9.133    c-15.068-9.431-27.943-18.793-27.943-31.026c0-12.869,20.491-28.035,56.22-41.608c11.206-4.257,22.482-7.833,32.201-10.64    C90.405,334.922,82.657,356.443,82.657,379.742z M110.196,489.981c-1.269-14.08-2.849-26.771-4.698-37.742    c-4.836-31.123-7.841-58.902-7.841-72.498c0-26.282,11.533-49.918,29.801-66.126l23.04,27.753c1.575,1.898,3.987,2.898,6.439,2.68    c2.457-0.22,4.647-1.634,5.861-3.781l15.771-27.917v177.632H110.196z M217.05,323.417l-17.552-31.068    c12.012,1.837,23.233,6.105,33.151,12.278L217.05,323.417z M361.487,261.161l1.131-0.323c0.005,0.094,0.013,0.189,0.018,0.283    L361.487,261.161z M376.516,296.293l11.04,11.618l-15.552,3.354L376.516,296.293z"/>
		<path d="M222.437,376.755c-4.143,0-7.5,3.358-7.5,7.5s3.357,7.5,7.5,7.5h30.725c4.143,0,7.5-3.358,7.5-7.5s-3.357-7.5-7.5-7.5    H222.437z"/>
		<path d="M234.061,229.77c0-14.299-14.495-25.5-33-25.5s-33,11.201-33,25.5s14.495,25.5,33,25.5S234.061,244.069,234.061,229.77z     M183.061,229.77c0-4.966,7.393-10.5,18-10.5s18,5.534,18,10.5s-7.393,10.5-18,10.5S183.061,234.736,183.061,229.77z"/>
		<path d="M497.445,52.54c4.143,0,7.5-3.358,7.5-7.5V28.5c0-15.715-12.785-28.5-28.5-28.5H367.448c-15.715,0-28.5,12.785-28.5,28.5    v79.269c0,13.121,8.911,24.198,21,27.499v32.501c0,2.593,1.339,5.001,3.541,6.37c1.208,0.751,2.581,1.13,3.959,1.13    c1.134,0,2.271-0.257,3.32-0.775l77.43-38.225h28.247c15.715,0,28.5-12.785,28.5-28.5V70.042c0-4.142-3.357-7.5-7.5-7.5    s-7.5,3.358-7.5,7.5v37.728c0,7.444-6.056,13.5-13.5,13.5h-29.997c-1.151,0-2.287,0.265-3.32,0.775l-68.18,33.658v-26.933    c0-4.142-3.357-7.5-7.5-7.5c-7.444,0-13.5-6.056-13.5-13.5V28.5c0-7.444,6.056-13.5,13.5-13.5h108.997    c7.444,0,13.5,6.056,13.5,13.5v16.54C489.945,49.182,493.302,52.54,497.445,52.54z"/>
		<path d="M468.946,45.269h-17.497c-4.143,0-7.5,3.358-7.5,7.5s3.357,7.5,7.5,7.5h17.497c4.143,0,7.5-3.358,7.5-7.5    S473.088,45.269,468.946,45.269z"/>
		<path d="M374.946,60.269h51.501c4.143,0,7.5-3.358,7.5-7.5s-3.357-7.5-7.5-7.5h-51.501c-4.143,0-7.5,3.358-7.5,7.5    S370.803,60.269,374.946,60.269z"/>
		<path d="M374.946,92.048h94c4.143,0,7.5-3.358,7.5-7.5s-3.357-7.5-7.5-7.5h-94c-4.143,0-7.5,3.358-7.5,7.5    S370.803,92.048,374.946,92.048z"/>
	</g>
</g>















</svg>
