<svg id="Capa_1" enable-background="new 0 0 512 512" height="512" viewBox="0 0 512 512" width="512" xmlns="http://www.w3.org/2000/svg"><g><g><path d="m293.487 399.037-149.805 94.45 16.149-115.146 41.763-54.411 70.569 20.01z" fill="#0092e2"/><path d="m18.54 159.758c-11.836 3.44-14.957 18.746-5.414 26.546l77.968 63.725 176.276-60.547 237.13-170.969z" fill="#83deff"/><path d="m201.594 323.93 116.125 94.912 60.41 49.379c8.782 7.179 22.049 2.643 24.598-8.41l101.773-441.298-233.039 173.778z" fill="#83deff"/><path d="m504.5 18.513-302.906 305.417-57.912 169.557-52.588-243.458z" fill="#00b4fd"/></g><g><path d="m506.904 11.414c-1.49-.501-3.03-.529-4.493-.103l-232.354 67.534c-3.978 1.156-6.265 5.318-5.109 9.295s5.319 6.265 9.296 5.109l169.353-49.222-351.717 196.968-74.014-60.494c-4.877-3.986-3.281-11.782 2.76-13.537l225.392-65.51c3.978-1.156 6.265-5.318 5.109-9.295-1.156-3.978-5.318-6.265-9.296-5.109l-225.392 65.51c-17.613 5.119-22.278 27.941-8.067 39.556l75.938 62.067 52.036 240.9c1.096 5.093 7 7.498 11.332 4.761l145.24-91.572 80.465 65.768c13.087 10.697 32.858 3.928 36.654-12.532l101.776-441.309c.005-.023.005-.046.01-.069.016-.074.031-.149.045-.223.692-3.647-1.384-7.287-4.964-8.493zm-349.266 464.416 47.562-139.256 75.47 61.686zm237.783-17.694c-1.3 5.638-8.067 7.949-12.544 4.289l-170.146-139.069 58.933-59.421c2.917-2.941 2.897-7.69-.044-10.607-2.94-2.917-7.69-2.898-10.607.044-67.033 68.078-65.412 64.874-66.52 68.141l-49.185 144.008-45.718-211.651 361.978-202.715-179.87 181.36c-2.917 2.941-2.897 7.69.044 10.607 2.94 2.917 7.69 2.898 10.607-.044l198.926-200.574z"/></g></g></svg>