<svg id="Layer_1" enable-background="new 0 0 50 50" height="512" viewBox="0 0 50 50" width="512" xmlns="http://www.w3.org/2000/svg"><g><g><g enable-background="new"><g fill="#f491ab"><path d="m16.7558 27.06445.6018-.3499c.0903-1.1669.4396-1.787.912-2.0614l-.6017.3495c-.4724.2744-.8218.8949-.9121 2.0618z"/><path d="m18.0934 20.95305-.6017 1.1115c1.5738-.9147 3.5738-1.7411 4.0044-1.4921.0546.0313.0826.049.0841.0497l-.0133 6.5503.6018-.3499.0132-6.5499c-.0015-.001-.0294-.0184-.0841-.05-.4306-.2487-2.4305-.1839-4.0044.7304z"/></g><g><path d="m21.4961 19.82795c.0546.0315.0826.049.0841.0499l-.0133 6.5502c-.0307-.0276-.6143-.5524-1.4053-1.0091-1.3378-.7724-3.1802-1.2699-3.4058 1.6454l-1.2446-.7186c.2963-7.6447 5.2747-6.9281 5.9849-6.5178z" fill="#ed5e72"/></g></g></g><g><g enable-background="new"><g fill="#f491ab"><path d="m33.2442 27.06445-.6017-.3499c-.0903-1.1669-.4397-1.787-.9121-2.0614l.6017.3495c.4724.2744.8218.8949.9121 2.0618z"/><path d="m31.9066 20.95305.6018 1.1115c-1.5739-.9147-3.5738-1.7411-4.00439-1.4921-.0547.0313-.08271.049-.08411.0497l.0132 6.5503-.6017-.3499-.0133-6.5499c.0015-.001.0295-.0184.0841-.05.4306-.2487 2.4306-.1839 4.0044.7304z"/></g><g><path d="m28.50401 19.82795c-.0547.0315-.08271.049-.08411.0499l.0132 6.5502c.0307-.0276.6144-.5524 1.4054-1.0091 1.3378-.7724 3.1802-1.2699 3.4057 1.6454l1.2447-.7186c-.2963-7.6447-5.2748-6.9281-5.98489-6.5178z" fill="#ed5e72"/></g></g></g><g><g><g><g><g><path d="m37.1143 43.13375c0-.636-.4821-1.1694-1.1694-1.4153 0-1.5787-1.9818-2.0698-3.2004-1.4056-.3179-.8202-1.3129-1.4259-2.4926-1.4259-.0565 0-.1122.0014-.1671.004-.4134.019-.8002-.2073-.9778-.581-1.7858-3.7571-2.3119-11.0137-2.3119-11.0137h-2.9645s-.5399 7.4425-2.3785 11.1585c-.3403.688-1.087.5349-1.4578.5349-1.2001 0-2.2362.5747-2.667 1.3745-.2564-.0717-.5231-.1129-.8001-.1129-1.2001 0-2.1849.7178-2.2772 1.631-.7693.1025-1.3643.6155-1.3643 1.2515 0 .5539.4719 1.0258 1.1284 1.2003-.0923.1537-.1436.3279-.1436.5027 0 .6973.7385 1.2716 1.6515 1.2716.66669 0 1.2412-.3074 1.49759-.7387.2051.8003 1.1283 1.4055 2.2362 1.4055.4205 0 .8103-.082 1.1488-.2358.1231.8819 1.0873 1.559 2.2669 1.559.1642 0 .3283-.0101.4924-.0411.3796.5645 1.1386.9437 2.0207.9437.7181 0 1.3541-.2565 1.7747-.6561h.0615c.88221 0 1.6515-.3798 2.031-.9435.4308.1946.9334.3075 1.4771.3075 1.3643 0 2.5029-.7183 2.8106-1.6825.2667.082.5539.1232.8514.1232 1.2617 0 2.2874-.79 2.2874-1.7539 0-.0412 0-.0823-.0102-.1232.40001-.2871.64621-.6979.64621-1.1387z" fill="#d4dbe9"/><g><path d="m36.4681 43.44775c.0102.0409.0102.0819.0102.1235 0 .9637-1.0257 1.7535-2.2874 1.7535-.2975 0-.5847-.041-.8514-.123-.3077.9643-1.4463 1.6827-2.8106 1.6827-.5437 0-1.0463-.113-1.4771-.3074-.3795.5633-1.1489.9432-2.031.9432h-.0615c-.4206.3999-1.0566.6563-1.7747.6563-.8821 0-1.6411-.3793-2.0207-.9437-.1641.031-.3282.0409-.4923.0409-1.1797 0-2.1439-.6774-2.267-1.5591-.3385.154-.7283.236-1.1488.236-1.1079 0-2.0311-.6054-2.2362-1.4058-.2564.4315-.8309.7389-1.4977.7389-.7194 0-1.3242-.3589-1.551-.8513-.06.1288-.1004.2652-.1004.4046 0 .6967.7385 1.2716 1.6514 1.2716.6668 0 1.2413-.3079 1.4977-.7388.2051.8003 1.1283 1.4051 2.2362 1.4051.4205 0 .8103-.082 1.1488-.2353.1231.8817 1.0873 1.5585 2.267 1.5585.1641 0 .3282-.01.4923-.041.3796.5644 1.1386.9438 2.0207.9438.7181 0 1.3541-.2564 1.7747-.6563h.0615c.8821 0 1.6515-.3794 2.031-.9432.4308.1944.9334.3074 1.4771.3074 1.3643 0 2.5029-.7184 2.8106-1.6827.2667.0825.5539.1235.8514.1235 1.2617 0 2.2874-.7904 2.2874-1.7541 0-.0409 0-.0819-.0102-.1229.4-.2875.6462-.6979.6462-1.1388 0-.1469-.0315-.2857-.0793-.4192-.1004.2816-.2939.5375-.5669.7331z" fill="#b4bed7"/></g><g><path d="m14.2501 43.30585c.0922-.9137 1.077-1.6313 2.2771-1.6313.277 0 .5437.0411.8002.1128.4508-.8372 1.6208-1.492 3.0392-1.3568.4463.0432.8867-.1507 1.0855-.5521 1.8386-3.7162 2.3785-11.159 2.3785-11.159h2.9645s.5261 7.2568 2.3119 11.0141c.1776.3735.5644.5996.9778.5806.055-.0026.1106-.0037.1671-.0037 1.1797 0 2.1747.6054 2.4926 1.4258 1.2141-.6613 3.2004-.1828 3.2004 1.4057.4066.1454.725.3989.9307.7076.1479-.2176.2387-.46.2387-.716 0-.636-.4821-1.1692-1.1694-1.4152 0-1.5787-1.9835-2.0699-3.2004-1.4053-.3179-.8203-1.3129-1.4262-2.4926-1.4262-.0565 0-.1121.0015-.1671.0042-.4134.0189-.8002-.2076-.9778-.5812-1.7858-3.7572-2.3119-11.0135-2.3119-11.0135h-2.9645s-.5399 7.4423-2.3785 11.1584c-.3409.6896-1.0928.5348-1.4578.5348-1.2002 0-2.2361.5748-2.6669 1.3747-.2565-.0717-.5232-.1128-.8002-.1128-1.2001 0-2.1849.7176-2.2771 1.6307-.7694.1028-1.3643.6154-1.3643 1.2514 0 .2676.1141.5132.3013.7181.2469-.2792.6168-.4863 1.063-.5458z" fill="#e3e6f0"/></g></g></g><g><g><path d="m31.0298 21.82495c0 3.0595-1.0322 5.755-2.6065 7.3664-.1782.1856-.3936.364-.6609.5127-.7648.4452-1.7673.6682-2.76239.6682-.99511 0-1.99751-.223-2.76241-.6682-.2673-.1487-.4827-.3271-.6609-.5127-1.5743-1.6114-2.6065-4.3069-2.6065-7.3664 0-3.3787.37881-12.3155 3.1337-17.4171.1485.223.3862.4307.6906.6091.6164.3488 1.411.5272 2.20551.5272.79459 0 1.58919-.1784 2.20549-.5272.3045-.1784.5421-.3861.6906-.6091 2.755 5.1016 3.1337 14.0384 3.1337 17.4171z" fill="#e3e6f0"/><path d="m27.8961 4.40775c-.1485.2233-.3861.4306-.6906.6094-.13149.0743 2.461 8.3837 1.8736 16.3306-.3713 5.0239-2.3979 6.2321-3.9722 7.8436-.1782.1858 1.4174.3641 1.15011.5127-.57131.3325-1.27541.5407-2.00971.6246.2488.0289.5009.0436.75271.0436.99509 0 1.99759-.2229 2.76239-.6682.2673-.1486.4827-.3269.6609-.5127 1.5743-1.6115 2.6065-4.3071 2.6065-7.3663 0-3.3789-.3787-12.3155-3.1337-17.4173z" fill="#d4dbe9"/><g><path d="m22.9094 28.43055c-1.7349 4.6676.5284 7.0724 2.1975 9.2925 1.66911-2.2224 3.9327-4.6254 2.1976-9.2925-1.3918.942-3.0033.942-4.3951 0z" fill="#fcba62"/><path d="m26.57701 28.82955c.76239 3.278-.5848 4.4548-1.47011 5.9713-.8852-1.5147-2.2323-2.6905-1.47-5.9713.959.4095 1.98111.4095 2.94011 0z" fill="#ffdd94"/></g><g><path d="m25.00001 28.43095c-1.49581 0-3.00281-.3354-4.15261-1.005-.3439-.1912-.6212-.4179-.8647-.6534.4252.9476.9632 1.7733 1.594 2.4187.1782.1855.3936.364.6609.5126.7649.4456 1.7673.6683 2.76241.6683.99509 0 1.99759-.2227 2.76239-.6683.2673-.1486.4828-.3271.6609-.5126.6308-.6454 1.1688-1.4711 1.594-2.4187-.2435.2355-.5208.4622-.8647.6534-1.1498.6696-2.6568 1.005-4.15259 1.005z" fill="#4d5772"/></g><path d="m26.2708 1.62885c-.3015-.3958-.76579-.6298-1.2633-.6298-.4975 0-.9618.234-1.2633.6298-.6514.8545-1.4007 2.0582-1.6394 2.78.1486.2224.3857.4301.6897.6081.6164.3487 1.411.5272 2.20551.5272.79459 0 1.58919-.1785 2.20549-.5272.3045-.1785.5421-.3861.6906-.609.003.0055.0057.0116.0087.0171.0022-.0028.0048-.0097.007-.012-.2374-.7214-.9883-1.9278-1.641-2.7842z" fill="#4d5772"/></g></g></g></g><g><g><g enable-background="new"><g><g><path d="m20.4318 9.87795c-.2199.9218.1591 2.1969.8521 2.8562.3499.3309.7095.4383 1.0154.3441l.5486-.1669c-.299.0955-.6655-.0136-1.0154-.3441-.693-.6597-1.0719-1.9348-.8452-2.8546.1099-.4607.3452-.7464.6496-.8338l-.5556.1656c-.2973.0887-.5395.3728-.6495.8335z" fill="#fff"/></g><g><path d="m22.5476 9.22455c.6927.6556 1.0753 1.9405.85241 2.8632-.22291.9227-.96731 1.1351-1.66.4795-.69281-.6555-1.07281-1.932-.84991-2.8547.2229-.9226.9647-1.1436 1.6575-.488z" fill="#678cc8"/></g><g><path d="m22.2005 8.93435c.882.8347 1.3673 2.4649 1.0835 3.6395-.2827 1.17-1.2283 1.4456-2.1104.611-.8783-.8312-1.3635-2.461-1.0809-3.631.2838-1.1746 1.2295-1.4506 2.1078-.6195zm-.9172 3.7966c.69271.6556 1.4371.4431 1.66-.4795.2229-.9227-.1597-2.2077-.8524-2.8632-.6928-.6556-1.4346-.4347-1.6575.488s.1571 2.1991.8499 2.8547" fill="#b4bed7"/></g><g><path d="m20.9143 8.49565c.1094-.0321.2138-.0434.3288-.0377l.00691.0017c.15779.0085.335.0579.50219.1489.1483.079.297.1869.4459.3243.2616.2441.4792.5505.6648.9.0438.0903.0877.1806.1246.2697.1511.3412.2544.7002.3201 1.0648.0131.0975.0261.1953.0375.2996.0189.1646.024.3258.0155.4835-.0011.2177-.0281.4221-.07559.6215-.04761.1995-.11781.3719-.1951.5132-.0623.1087-.1282.2019-.2046.2784-.0406.0486-.0934.0867-.1376.1198-.0885.0662-.1874.1154-.2883.1421l.5556-.1656c.1008-.0267.19289-.0775.28139-.1437.0511-.0315.0969-.0713.1445-.1182.0694-.0778.1421-.1694.1975-.2797.0843-.14.14761-.314.1952-.5135.0459-.1924.0745-.4035.0825-.6199.0017-.1593-.0034-.3206-.0224-.4848-.0045-.103-.0176-.2005-.0375-.2997-.0587-.3632-.1689-.7238-.31319-1.0635-.0438-.0903-.08771-.1806-.1315-.2712-.1786-.3479-.4031-.6559-.6578-.8984-.149-.137-.2976-.2453-.4459-.3243-.1742-.0923-.3445-.1404-.5092-.1506-.1149-.0057-.2263.0043-.3289.038-.16401.0478-.38281.112-.55541.1653z" fill="#fff"/></g></g></g></g><g><g enable-background="new"><g><g><path d="m20.3316 15.32315c-.1674.7016.1211 1.6722.6486 2.1741.2663.2519.54.3337.7729.262l.4176-.1271c-.2276.0727-.5065-.0103-.7729-.2619-.5275-.5022-.816-1.4728-.6434-2.1729.0837-.3507.2628-.5681.4945-.6347l-.4229.126c-.2264.0676-.4107.2838-.4944.6345z" fill="#fff"/></g><g><path d="m21.9421 14.82575c.5273.499.8185 1.4771.6489 2.1795-.1697.7023-.73631.864-1.26361.365-.5274-.499-.8166-1.4706-.6469-2.173.16971-.7023.73431-.8705 1.26161-.3715z" fill="#678cc8"/></g><g><path d="m21.6779 14.60495c.6714.6353 1.0408 1.8762.8248 2.7703-.2152.8906-.935 1.1004-1.6064.465-.6686-.6326-1.038-1.8732-.8228-2.7638.216-.8941.9359-1.1042 1.6044-.4715zm-.6982 2.8899c.52731.499 1.0939.3373 1.2636-.365.1697-.7024-.1215-1.6805-.6488-2.1795-.5274-.499-1.092-.3308-1.2617.3715s.1196 1.674.6469 2.173" fill="#b4bed7"/></g><g><path d="m20.6989 14.27095c.0833-.0244.1627-.033.2502-.0286l.0053.0012c.1201.0065.255.0441.3823.1134.1129.0601.2261.1422.3394.2468.1991.1858.3648.419.506.6851.0334.0687.0668.1375.0949.2052.115.2598.1936.5331.2436.8105.01.0743.0199.1488.0286.2281.0143.1253.0182.2481.0118.3681-.0008.1657-.0214.3212-.0576.4731-.0362.1518-.0897.2831-.1485.3906-.0474.0827-.0975.1537-.1557.2119-.0309.037-.0711.066-.1048.0912-.0673.0504-.1426.0878-.21939.1082l.42289-.1261c.0767-.0203.1468-.059.2142-.1094.0389-.0239.0738-.0542.11-.0899.0528-.0593.1082-.129.1504-.213.0641-.1065.1123-.239.1485-.3908.035-.1465.05669-.3072.0628-.4719.0013-.1212-.0026-.244-.017-.369-.0035-.0784-.0134-.1526-.0286-.2281-.0447-.2765-.1286-.551-.2384-.8095-.0334-.0688-.0668-.1375-.1001-.2065-.136-.2648-.3068-.4993-.5007-.6838-.11341-.1044-.22651-.1867-.33941-.2469-.1326-.0703-.2622-.1068-.38759-.1146-.08751-.0044-.17231.0032-.25031.0289-.12489.0364-.29149.0853-.42279.1258z" fill="#fff"/></g></g></g></g></g></g><g><g><g><g><path d="m27.9436 21.34205c.7112.4106 5.6915 5.4438 5.9435 13.4048l-1.2446-.7186c-.2084-3.1662-2.0493-4.7949-3.3884-5.5681-.7917-.457-1.3771-.6072-1.4079-.6151l.0132-6.5502c.0015.0008.0294.0156.0842.0472z" fill="#ed5e72"/></g><path d="m28.5453 20.99245c-.0548-.0316-.0827-.0466-.0842-.0473l-.6017.3495c.0015.0011.0294.0157.0842.0473.7112.4106 5.6915 5.4441 5.9435 13.4048l.6018-.3495c-.2521-7.961-5.2323-12.9942-5.9436-13.4048z" fill="#f491ab"/></g></g><g><g><g><path d="m22.0565 21.34205c-.7113.4106-5.6916 5.4438-5.9436 13.4048l1.2447-.7186c.2083-3.1662 2.0493-4.7949 3.3884-5.5681.7916-.457 1.3771-.6072 1.4079-.6151l-.0132-6.5502c-.0015.0008-.0294.0156-.0842.0472z" fill="#ed5e72"/></g><path d="m21.4547 20.99245c.0548-.0316.0827-.0466.0842-.0473l.6018.3495c-.0015.0011-.0294.0157-.0842.0473-.7113.4106-5.6916 5.4441-5.9436 13.4048l-.6017-.3495c.252-7.961 5.2323-12.9942 5.9435-13.4048z" fill="#f491ab"/></g></g></g></g></svg>