<svg id="Layer_1" enable-background="new 0 0 511.995 511.995" height="512" viewBox="0 0 511.995 511.995" width="512" xmlns="http://www.w3.org/2000/svg"><path id="XMLID_989_" d="m398.975 221.689c-82.377-98.915-63.603-176.265-50.491-205.022 2.238-4.908-2.177-10.236-7.423-8.982-70.804 16.925-112.797 53.257-137.065 95.263-4.624-20.456-6.214-40.605-6.751-53.194-.237-5.558-6.898-8.266-10.935-4.439-39.764 37.703-105.711 157.271-107.822 275.819-1.787 100.365 78.363 184.045 178.741 183.357 97.486-.668 176.307-79.902 176.307-177.546.001-39.403-11.142-77.135-34.561-105.256z" fill="#ec6264"/><path id="XMLID_990_" d="m433.536 326.947c0 97.639-78.819 176.879-176.308 177.548-6.9.05-13.71-.31-20.4-1.04 88.939-9.67 158.159-85.009 158.159-176.508 0-39.4-11.14-77.139-34.56-105.259-82.019-98.479-63.759-175.598-50.66-204.638 9.75-3.56 20.16-6.7 31.29-9.36 5.25-1.26 9.66 4.07 7.43 8.98-13.12 28.75-31.89 106.109 50.49 205.018 23.419 28.12 34.559 65.859 34.559 105.259z" fill="#e64649"/><path id="XMLID_991_" d="m349.051 356.509c0 51.392-41.662 93.054-93.054 93.054s-93.054-41.662-93.054-93.054c0-42.452 63.496-117.581 85.586-142.434 3.976-4.473 10.959-4.473 14.935 0 22.092 24.853 85.587 99.982 85.587 142.434z" fill="#fcc16d"/><path id="XMLID_992_" d="m349.047 356.507c0 51.389-41.66 93.059-93.049 93.059-6.21 0-12.29-.61-18.16-1.77 42.69-8.45 74.889-46.11 74.889-91.289 0-36.84-47.83-98.299-74.889-130.139 4.13-4.85 7.77-9.01 10.69-12.29 3.98-4.48 10.96-4.48 14.94 0 22.089 24.85 85.579 99.979 85.579 142.429z" fill="#fcb44d"/><path id="XMLID_995_" d="m255.981 511.995c-40.638 0-79.154-13.1-111.474-37.93-3.284-2.523-3.901-7.232-1.378-10.517 2.522-3.284 7.229-3.903 10.517-1.378 29.987 23.039 65.833 35.098 103.531 34.82 45.172-.31 87.591-18.135 119.442-50.193 31.867-32.073 49.417-74.638 49.417-119.853 0-39.363-11.657-75.039-32.824-100.457-36.686-44.049-57.796-88.724-62.745-132.782-4.161-37.048 4.304-64.297 10.345-78.243-60.046 14.791-103.887 45.479-130.322 91.237-1.545 2.673-4.565 4.125-7.621 3.663-3.052-.464-5.508-2.75-6.188-5.761-4.435-19.616-6.166-38.887-6.825-52.278-16.707 16.531-41.967 51.853-64.71 103.601-17.218 39.178-37.988 99.666-39.158 165.342-.776 43.604 14.625 85.575 43.365 118.182 2.739 3.107 2.44 7.846-.667 10.585-3.105 2.74-7.846 2.44-10.585-.667-31.223-35.421-47.954-81.009-47.112-128.366 1.214-68.166 22.653-130.675 40.424-171.11 20.401-46.42 47.123-88.576 69.737-110.017 4.025-3.818 9.72-4.895 14.861-2.812 5.146 2.084 8.49 6.826 8.727 12.375.375 8.782 1.237 20.662 3.175 33.597 29.369-41.03 73.481-68.795 131.404-82.642 5.244-1.254 10.631.554 14.061 4.718 3.422 4.155 4.161 9.776 1.931 14.669-5.409 11.863-13.892 37.022-9.935 72.253 4.616 41.093 24.589 83.101 59.364 124.857 23.408 28.107 36.299 67.192 36.299 110.056 0 49.203-19.098 95.522-53.776 130.425-34.661 34.886-80.822 54.284-129.979 54.621-.433.004-.869.005-1.301.005z"/><path id="XMLID_996_" d="m255.998 457.063c-55.445 0-100.554-45.108-100.554-100.554 0-18.203 10.246-43.112 30.453-74.036 2.266-3.468 6.914-4.442 10.381-2.176 3.468 2.266 4.441 6.914 2.176 10.381-18.324 28.042-28.01 50.806-28.01 65.831 0 47.174 38.379 85.554 85.554 85.554s85.554-38.379 85.554-85.554c0-7.104-2.15-15.955-6.392-26.306-1.571-3.833.263-8.213 4.096-9.784 3.834-1.569 8.214.264 9.783 4.096 4.985 12.165 7.513 22.929 7.513 31.993-.001 55.446-45.109 100.555-100.554 100.555z"/><path id="XMLID_997_" d="m326.118 304.041c-2.531 0-5.002-1.282-6.414-3.603-19.794-32.538-47.243-64.954-61.844-81.38-.647-.729-1.445-.837-1.862-.837s-1.215.109-1.862.838c-8.837 9.942-22.269 25.626-36.069 43.886-2.498 3.304-7.202 3.958-10.506 1.461-3.305-2.498-3.958-7.201-1.461-10.506 14.098-18.652 27.808-34.661 36.825-44.807 3.317-3.732 8.082-5.872 13.073-5.872s9.756 2.14 13.073 5.872c14.937 16.805 43.041 50.005 63.447 83.55 2.153 3.539 1.029 8.153-2.51 10.306-1.216.739-2.562 1.092-3.89 1.092z"/></svg>