<svg id="Layer_1" enable-background="new 0 0 512 512" height="512" viewBox="0 0 512 512" width="512" xmlns="http://www.w3.org/2000/svg"><g><path d="m493.102 306.907c5.149-19.776 7.897-40.52 7.897-61.908 0-135.309-109.69-244.999-244.999-244.999s-244.999 109.69-244.999 244.999 109.69 244.999 244.999 244.999c61.498 0 117.699-22.662 160.72-60.086z" fill="#746bf9"/><path d="m90.165 465.336c7.465 1.572 14.811 4.312 21.768 8.328 6.957 4.017 13.003 9.008 18.097 14.688l39.44-28.371c3.559-1.928 6.514-4.805 8.537-8.31l.937-1.623c-.121-.067-.246-.118-.366-.187-6.913-3.991-10.974-11.012-11.487-18.416-.104-1.504-.947-2.726-2.098-3.459-1.267-.808-2.908-1.021-4.4-.292-14.727 7.194-32.044-2.784-33.179-19.156-.115-1.656-1.12-2.971-2.453-3.665-1.21-.629-2.69-.749-4.045-.087-6.669 3.257-14.779 3.251-21.692-.741-.12-.069-.227-.152-.345-.223l-.937 1.623c-2.024 3.505-3.037 7.502-2.928 11.548z" fill="#fcf9eb"/><path d="m141.945 429.296.057-.859c-7.854-3.104-13.932-10.427-14.588-19.899-.115-1.656-1.12-2.971-2.453-3.665-1.211-.629-2.69-.749-4.045-.087-6.669 3.257-14.779 3.251-21.692-.741-.12-.069-.227-.152-.345-.223l-.937 1.623c-2.024 3.505-3.037 7.502-2.928 11.548l-4.85 48.342c7.308 1.538 14.498 4.205 21.324 8.084 1.61-8.667 3.859-19.989 6.456-30.874 5.251-21.999 24.001-13.249 24.001-13.249z" fill="#fceca9"/><g><path d="m298.926 55.804 80.066 46.226c.16.092.305.2.46.297l14.515-25.14c12.916-22.371 5.251-50.976-17.12-63.892-22.371-12.916-50.976-5.251-63.892 17.12l-14.514 25.14c.159.085.325.157.485.249z" fill="#ff4155"/></g><path d="m264.921 223.848-75.97 6.193s-11.104 23.012-36.242 72.866 19.275 92.558 19.275 92.558c25.181 29.276 46.128 48.299 61.624 39.522 14.521-8.225 9.537-24.716 9.537-24.716-2.799-9.05-7.687-19.424-13.428-29.881l9.241-65.426s51.12 10.846 82.224 4.907c31.105-5.939 20.966-30.862 20.966-30.862-6.249-63.174-77.227-65.161-77.227-65.161z" fill="#fd995b"/><g><path d="m328.318 282.577c-31.104 5.939-82.224-4.907-82.224-4.907l-5.319 37.663c9.35 1.845 52.776 9.816 80.409 4.539 31.104-5.939 20.966-30.862 20.966-30.862-.371-3.754-.978-7.285-1.778-10.62-3.091 1.766-7.027 3.226-12.054 4.187z" fill="#f48345"/></g><g><path d="m193.054 374.912s-44.412-42.705-19.275-92.558c11.932-23.663 20.696-41.268 26.617-53.246l-11.446.933s-11.104 23.012-36.242 72.866 19.275 92.558 19.275 92.558c25.181 29.276 46.128 48.299 61.624 39.522 8.817-4.994 10.439-13.031 10.356-18.578-13.964-1.839-31.129-18.5-50.909-41.497z" fill="#f48345"/></g><path d="m493.779 304.206-35.083-23.834c-3.088-2.098-5.733-4.777-7.826-7.869-25.275-37.329-57.057-80.359-92.326-110.864-6.996-6.052-15.327-10.34-24.292-12.621-17.434-4.436-48.488-11.206-62.409-7.237-39.458 11.251-95.885 9.389-114.842 37.295-27.632 40.675-67.978 151.985-45.426 167.306 4.172 2.834 9.383 3.53 15.647-.176l14.15-12.573c20.093-22.222 40.926-69.123 48.584-87.318 2.003-4.76 6.415-8.062 11.549-8.618 12.965-1.403 32.621-1.933 45.66-3.497 33.443-4.012 65.193 9.604 80.868 39.725 3.603 6.924 6.904 13.057 7.82 17.917 0 0 5.016 18.67-9.624 21.466l-51.337 2.668c-5.345-1.121-90.227-27.923-119.085 6.702-1.172 1.418-2.352 3.266-2.284 3.165-3.241 5.204-4.95 12.226-2.324 17.62 2.399 5.15 7.626 5.74 51.395 24.721 19.124 8.244 38.757 17.189 48.568 23.854 16.353 11.109 82.562 14.255 112.681 15.12 9.938.285 19.584 3.396 27.808 8.983l22.94 15.584c38.436-32.675 66.649-76.998 79.188-127.519z" fill="#f9ba8f"/><path d="m442.391 403.989-29.068-19.747c-8.224-5.587-17.871-8.699-27.808-8.984-30.119-.865-96.328-4.011-112.681-15.12-23.249-15.794-93.744-40.896-98.724-46.638-.823-.987-1.24-1.925-1.498-2.551-14.686 6.063-19.155 14.992-19.087 14.892-4.478 7.191-5.358 17.449.95 21.301 10.342 6.353 75.097 30.227 96.689 44.895 16.353 11.109 82.562 14.255 112.681 15.12 9.938.285 19.584 3.397 27.808 8.984l22.94 15.584c9.988-8.491 19.286-17.767 27.798-27.736z" fill="#fcad6d"/><path d="m127.223 346.206 14.149-12.574c18.377-20.323 37.954-62.06 48.584-87.317.001-.003.003-.005.004-.008 3.431-8.118 11.738-8.672 11.598-8.615 6.01-.649 14.337-1.166 20.462-1.542.03-.002.059-.003.089-.005 8.882-.547 17.952-1.092 25.057-1.945 33.771-4.051 64.683 9.846 80.277 38.652l.019-.032c3.33 6.429 7.406 13.794 8.392 19.022 1.298 6.063 1.536 13.129-2.596 17.73l-.001.002s36.943-13.239 24.268-49.631c-1.215-6.44-6.452-14.695-10.678-23.755-13.108-28.089-43.097-44.283-73.882-40.665l-88.115 10.355c-6.561.708-12.217 4.914-14.776 10.996-39.457 93.751-64.861 113.798-64.938 113.912.001.004 0 .009.001.013.003.042.008.081.011.122.417 5.555 1.84 12.343 6.429 15.461 2.738 1.86 5.926 2.788 9.563 2.167 1.904-.326 3.93-1.07 6.083-2.343z" fill="#fcad6d"/><path d="m98.399 405.475c7.137 4.121 15.825 4.417 23.243.794.794-.387 1.689-.363 2.494.033l166.739-290.329-20.016-11.557-172.807 300.84c.118.071.227.15.347.219z" fill="#ffb332"/><path d="m98.399 405.475c7.137 4.121 15.826 4.417 23.243.794.794-.387 1.689-.363 2.494.033l78.461-136.618c-1-.337-2.087-.41-3.158-.147-12.349 3.033-15.972-4.583-17.002-8.435-.149-.557-.393-1.075-.685-1.561l-83.7 145.713c.118.073.227.152.347.221z" fill="#ff9100"/><path d="m124.326 406.385c.851.491 1.375 1.318 1.442 2.267.571 8.235 5.172 15.611 12.309 19.732 7.137 4.12 15.825 4.417 23.243.794.855-.417 1.833-.376 2.684.115.061.035.108.085.166.123l166.739-290.329-40.033-23.113-166.74 290.329c.062.03.128.046.19.082z" fill="#ffdd40"/><path d="m246.909 279.161c-25.844 8.01-37.267-1.775-41.462-7.409-.734-.985-1.737-1.691-2.851-2.067l-78.461 136.618c.063.031.128.046.19.082.851.491 1.375 1.318 1.442 2.267.571 8.235 5.172 15.611 12.309 19.732 7.137 4.12 15.825 4.417 23.242.794.855-.417 1.833-.376 2.684.115.062.035.108.085.166.123l86.279-150.23c-1.122-.365-2.356-.391-3.538-.025z" fill="#ffb332"/><path d="m165.444 431.559c.571 8.235 5.172 15.611 12.309 19.732.12.069.244.123.364.19l172.807-300.838-20.016-11.557-166.739 290.329c.745.5 1.214 1.263 1.275 2.144z" fill="#ffb332"/><path d="m268.876 285.285c-8.502 2.75-13.246-.945-15.602-4.083-.729-.971-1.724-1.658-2.827-2.016l-86.279 150.23c.745.5 1.214 1.263 1.276 2.144.571 8.235 5.172 15.611 12.309 19.732.12.069.244.123.365.19l95.276-165.866c-1.342-.669-2.949-.839-4.518-.331z" fill="#ff9100"/><path d="m112.759 472.234c-7.172-4.14-14.74-6.957-22.427-8.563l-3.929 39.168c-.825 7.132 7.266 11.803 13.03 7.523l31.956-22.987c-5.236-5.854-11.459-11-18.63-15.141z" fill="#5f5f9b"/><path d="m108.866 488.352s1.106-6.873 2.942-16.641c-6.89-3.848-14.127-6.504-21.477-8.04l-3.929 39.168c-.825 7.132 7.266 11.803 13.03 7.523l14.477-10.414c-7.233-3.297-5.043-11.596-5.043-11.596z" fill="#47477f"/><g><path d="m274.893 315.975c-5.345-1.121-90.227-27.923-119.084 6.702-1.172 1.418-2.352 3.266-2.284 3.165-3.241 5.204-4.95 12.226-2.324 17.621 2.399 5.149 7.626 5.74 51.395 24.721 52.645 22.694 43.996 22.922 55.208 27.06l55.196-81.249z" fill="#f9ba8f"/></g><path d="m279.475 363.345c-2.679-.989-4.941-2.052-6.64-3.206-23.249-15.794-93.744-40.896-98.724-46.638-.823-.987-1.241-1.925-1.498-2.551-13.393 5.529-24.671 16.947-22.417 29.472 1.584 7.996 3.732 6.685 51.421 27.338 55.082 23.594 43.777 22.901 56.179 27.481.003.001.005.002.005.002z" fill="#fcad6d"/><g><path d="m310.263 182.953c-1.378 0-2.773-.351-4.052-1.089l-40.034-23.113c-3.883-2.242-5.214-7.207-2.972-11.091 2.241-3.884 7.206-5.215 11.091-2.972l40.034 23.113c3.883 2.242 5.214 7.207 2.972 11.091-1.503 2.604-4.233 4.061-7.039 4.061z" fill="#fceca9"/></g><g><path d="m350.374 151.596-80.066-46.226c-7.107-4.103-9.542-13.191-5.439-20.298s13.191-9.542 20.298-5.439l80.066 46.226c7.107 4.103 9.542 13.191 5.439 20.298-4.104 7.108-13.191 9.543-20.298 5.439z" fill="#d3dcfb"/></g><path d="m298.536 106.911c2.339-4.583 6.568-7.48 11.203-8.305 1.61-.287 2.792-1.487 3.196-2.939l-27.768-16.032c-7.107-4.103-16.194-1.668-20.298 5.439-4.103 7.107-1.668 16.194 5.439 20.298l28.922 16.698c-2.726-4.509-3.222-10.205-.694-15.159z" fill="#bec8f7"/><g><path d="m364.682 126.813-80.065-46.226c-7.107-4.103-9.542-13.191-5.439-20.298s13.191-9.542 20.298-5.439l80.066 46.226c7.107 4.103 9.542 13.191 5.439 20.298-4.104 7.107-13.191 9.542-20.299 5.439z" fill="#e9efff"/></g><path d="m312.856 93.207c-1.603-4.427-1.209-9.538 1.591-13.855 3.454-5.326 9.713-7.738 15.705-6.79l-30.676-17.711c-7.107-4.103-16.194-1.668-20.298 5.439-4.103 7.107-1.668 16.194 5.439 20.298l27.887 16.101c.608-1.011.79-2.274.352-3.482z" fill="#d3dcfb"/><circle cx="368.949" cy="42.821" fill="#ff7186" r="18.025"/></g></svg>